<!-- Generated by IcoMoon.io -->
<svg version="1.1" xmlns="http://www.w3.org/2000/svg" width="32" height="32" viewBox="0 0 32 32">
<title>hamburger</title>
<path fill="#bdbcff" d="M21.167 16.681h5.833c1.654 0 3-1.346 3-3v-5.832c0-1.654-1.346-3-3-3h-5.833c-1.654 0-3 1.346-3 3v5.832c0 1.654 1.346 3 3 3zM27 6.849c0.551 0 1 0.448 1 1v5.832c0 0.552-0.449 1-1 1h-5.833c-0.551 0-1-0.448-1-1v-5.832c0-0.552 0.449-1 1-1h5.833z"></path>
<path fill="#5552ff" d="M5 16.681h8.592c1.654 0 3-1.346 3-3v-8.592c0-1.654-1.346-3-3-3h-8.592c-1.654 0-3 1.346-3 3v8.592c0 1.654 1.346 3 3 3zM13.592 4.089c0.551 0 1 0.448 1 1v8.592c0 0.552-0.449 1-1 1h-8.592c-0.551 0-1-0.448-1-1v-8.592c0-0.552 0.449-1 1-1h8.592z"></path>
<path fill="#bdbcff" d="M21.167 30.089h5.833c1.654 0 3-1.346 3-3v-5.833c0-1.654-1.346-3-3-3h-5.833c-1.654 0-3 1.346-3 3v5.833c0 1.654 1.346 3 3 3zM27 20.256c0.551 0 1 0.448 1 1v5.833c0 0.552-0.449 1-1 1h-5.833c-0.551 0-1-0.448-1-1v-5.833c0-0.552 0.449-1 1-1h5.833zM7.76 30.089h5.833c1.654 0 3-1.346 3-3v-5.833c0-1.654-1.346-3-3-3h-5.833c-1.654 0-3 1.346-3 3v5.833c0 1.654 1.346 3 3 3zM13.593 20.256c0.551 0 1 0.448 1 1v5.833c0 0.552-0.449 1-1 1h-5.833c-0.551 0-1-0.448-1-1v-5.833c0-0.552 0.449-1 1-1h5.833z"></path>
</svg>
