<svg width="777" height="320" viewBox="0 0 777 320" fill="none" xmlns="http://www.w3.org/2000/svg">
<path d="M241.382 5L477.765 111.069V122" stroke="#FFC226" stroke-width="9.99447" stroke-miterlimit="10" stroke-linecap="round" stroke-linejoin="round"/>
<path d="M241.382 5V314.116H5V111.069L241.382 5Z" fill="#FFC226" stroke="#FFC226" stroke-width="9.99447" stroke-miterlimit="10" stroke-linecap="round" stroke-linejoin="round"/>
<path d="M122.796 256.496C153.193 256.496 177.834 231.854 177.834 201.458C177.834 171.062 153.193 146.421 122.796 146.421C92.4 146.421 67.7588 171.062 67.7588 201.458C67.7588 231.854 92.4 256.496 122.796 256.496Z" fill="white" fill-opacity="0.42"/>
<path d="M177.912 194.203H123.429V196.476V213.796V216.189H130.891H152.461C147.014 227.264 135.631 234.89 122.457 234.89C103.991 234.89 89.0227 219.922 89.0227 201.457C89.0227 182.991 103.991 168.023 122.457 168.023V167.986H167.008V146H161.662L120.791 146.043C90.9362 146.926 67 171.388 67 201.457C67 232.084 91.829 256.913 122.457 256.913C153.084 256.913 177.913 232.084 177.913 201.457C177.912 199.778 178.058 195.845 177.912 194.203Z" fill="#5552FF"/>
<path d="M134.422 205.197C134.422 211.268 129.5 216.191 123.429 216.191C117.357 216.191 112.435 211.27 112.435 205.197C112.435 199.126 117.357 194.203 123.429 194.203C129.5 194.203 134.422 199.126 134.422 205.197Z" fill="white"/>
<path d="M156.012 156.994C156.012 150.923 160.935 146 167.006 146C173.078 146 178 150.923 178 156.994C178 163.065 173.079 167.988 167.006 167.988C160.933 167.988 156.012 163.065 156.012 156.994Z" fill="white"/>
<path d="M310.64 218.024C306.331 218.024 302.448 217 298.992 214.952C295.536 212.861 292.827 210.024 290.864 206.44C288.901 202.856 287.92 198.909 287.92 194.6C287.92 190.461 288.901 186.664 290.864 183.208C292.869 179.752 295.643 177.021 299.184 175.016C302.725 173.011 306.757 172.008 311.28 172.008C313.755 172.008 316.144 172.285 318.448 172.84C320.795 173.395 322.907 174.184 324.784 175.208L320.56 185.128C317.659 183.933 314.949 183.336 312.432 183.336C309.147 183.336 306.608 184.403 304.816 186.536C303.024 188.627 302.128 191.379 302.128 194.792C302.128 197.011 302.533 199.016 303.344 200.808C304.155 202.557 305.285 203.944 306.736 204.968C308.229 205.992 309.915 206.504 311.792 206.504C312.816 206.504 313.669 206.419 314.352 206.248V195.944L325.424 194.664V214.696C320.603 216.915 315.675 218.024 310.64 218.024ZM348.348 172.968H367.804L380.54 217H365.5L363.836 208.552H352.444L350.588 217H336.188L348.348 172.968ZM362.3 200.68L358.14 181.416L353.788 200.68H362.3ZM392.458 172.968H407.242V217H392.458V172.968ZM423.262 172.968H436.126L453.662 196.712V172.968H465.118V217H452.318L434.654 194.088V217H423.262V172.968ZM481.13 172.968H512.042V182.696H496.682V190.696H510.698V198.76H496.682V207.272H512.042V217H481.13V172.968ZM540.504 218.024C534.488 218.024 529.411 216.915 525.272 214.696L528.472 204.776C532.867 206.355 536.792 207.144 540.248 207.144C542.126 207.144 543.491 206.931 544.344 206.504C545.24 206.035 545.688 205.352 545.688 204.456C545.688 203.859 545.454 203.347 544.984 202.92C544.515 202.451 543.576 201.939 542.168 201.384C540.76 200.829 538.648 200.147 535.832 199.336C532.376 198.312 529.688 196.648 527.768 194.344C525.848 191.997 524.888 189.309 524.888 186.28C524.888 181.587 526.424 178.045 529.496 175.656C532.611 173.224 536.792 172.008 542.04 172.008C544.771 172.008 547.459 172.307 550.104 172.904C552.75 173.459 555.096 174.291 557.144 175.4L553.688 185.064C551.299 184.253 549.208 183.677 547.416 183.336C545.667 182.952 543.96 182.76 542.296 182.76C539.48 182.76 538.072 183.528 538.072 185.064C538.072 185.832 538.52 186.493 539.416 187.048C540.355 187.56 542.254 188.221 545.112 189.032C549.592 190.227 552.984 192.061 555.288 194.536C557.592 196.968 558.744 199.891 558.744 203.304C558.744 208.04 557.208 211.688 554.136 214.248C551.064 216.765 546.52 218.024 540.504 218.024ZM568.395 172.968H582.859L589.643 200.424L596.427 172.968H611.531L597.771 217H581.451L568.395 172.968ZM623.108 172.968H637.892V217H623.108V172.968ZM653.913 172.968H667.737V207.272H683.033V217H653.913V172.968ZM696.03 172.968H709.854V207.272H725.15V217H696.03V172.968ZM738.147 172.968H769.059V182.696H753.699V190.696H767.715V198.76H753.699V207.272H769.059V217H738.147V172.968Z" fill="#5552FF"/>
<path d="M290.335 294V256.77H294.466L307.726 279.21H307.828L321.088 256.77H325.372V294H321.292V263.604H321.19L309.664 282.933H305.89L294.364 263.604H294.262V294H290.335ZM347.324 294V256.77H351.761V294H347.324ZM373.71 294V256.77H377.943L397.323 287.37H397.425V256.77H401.403V294H397.221L377.841 263.4H377.739V294H373.71ZM423.327 294V256.77H427.764V294H423.327ZM486.538 259.575C484.192 259.575 482.373 260.102 481.081 261.156C479.789 262.176 479.143 263.604 479.143 265.44C479.143 268.738 481.557 271.118 486.385 272.58C490.601 273.804 493.593 275.334 495.361 277.17C497.163 279.006 498.064 281.386 498.064 284.31C498.064 287.608 497.027 290.141 494.953 291.909C492.913 293.643 489.989 294.51 486.181 294.51C481.965 294.51 478.225 293.439 474.961 291.297L476.185 287.931C479.143 290.039 482.475 291.093 486.181 291.093C488.697 291.093 490.618 290.515 491.944 289.359C493.304 288.203 493.984 286.52 493.984 284.31C493.984 282.27 493.406 280.655 492.25 279.465C491.128 278.241 489.139 277.187 486.283 276.303C478.837 274.093 475.114 270.472 475.114 265.44C475.114 262.652 476.117 260.425 478.123 258.759C480.163 257.093 482.968 256.26 486.538 256.26C490.38 256.26 493.95 257.059 497.248 258.657L496.228 261.819C493.27 260.323 490.04 259.575 486.538 259.575ZM514.93 256.77H542.113V260.238H530.587V294H526.507V260.238H514.93V256.77ZM588.283 289.308C584.985 292.776 580.599 294.51 575.125 294.51C569.651 294.51 565.248 292.776 561.916 289.308C558.584 285.806 556.918 281.165 556.918 275.385C556.918 269.605 558.584 264.981 561.916 261.513C565.248 258.011 569.651 256.26 575.125 256.26C580.599 256.26 584.985 258.011 588.283 261.513C591.615 264.981 593.281 269.605 593.281 275.385C593.281 281.165 591.615 285.806 588.283 289.308ZM575.125 291.093C579.341 291.093 582.724 289.682 585.274 286.86C587.858 284.004 589.15 280.179 589.15 275.385C589.15 270.591 587.858 266.783 585.274 263.961C582.724 261.105 579.341 259.677 575.125 259.677C570.875 259.677 567.458 261.105 564.874 263.961C562.324 266.783 561.049 270.591 561.049 275.385C561.049 280.179 562.324 284.004 564.874 286.86C567.458 289.682 570.875 291.093 575.125 291.093ZM611.384 294V257.025C614.342 256.515 617.521 256.26 620.921 256.26C625.681 256.26 629.268 257.144 631.682 258.912C634.13 260.646 635.354 263.128 635.354 266.358C635.354 268.942 634.657 271.101 633.263 272.835C631.869 274.569 629.897 275.759 627.347 276.405V276.507C628.877 277.323 630.39 279.533 631.886 283.137L636.374 294H632.141L627.755 283.239C626.735 280.791 625.766 279.278 624.848 278.7C623.964 278.088 622.196 277.782 619.544 277.782H615.464V294H611.384ZM615.464 274.518H619.544C623.59 274.518 626.565 273.872 628.469 272.58C630.373 271.254 631.325 269.299 631.325 266.715C631.325 261.955 627.738 259.575 620.564 259.575C618.762 259.575 617.062 259.728 615.464 260.034V274.518ZM652.688 294L666.305 256.77H670.895L684.461 294H680.126L676.352 283.137H660.644L656.921 294H652.688ZM661.766 279.873H675.23L668.549 260.442H668.447L661.766 279.873ZM718.023 259.575C713.229 259.575 709.455 261.003 706.701 263.859C703.981 266.715 702.621 270.557 702.621 275.385C702.621 280.247 704.032 284.106 706.854 286.962C709.71 289.784 713.552 291.195 718.38 291.195C721.406 291.195 724.177 290.634 726.693 289.512V275.589H713.79V272.325H730.62V291.705C726.778 293.575 722.579 294.51 718.023 294.51C712.107 294.51 707.364 292.776 703.794 289.308C700.258 285.84 698.49 281.199 698.49 275.385C698.49 269.571 700.224 264.93 703.692 261.462C707.16 257.994 711.835 256.26 717.717 256.26C722.035 256.26 725.877 257.28 729.243 259.32L727.866 262.329C724.806 260.493 721.525 259.575 718.023 259.575ZM754.596 260.187V272.325H771.273V275.589H754.596V290.583H772.293V294H750.516V256.77H772.293V260.187H754.596Z" fill="#FFC226"/>
</svg>
