<svg width="272" height="69" viewBox="0 0 272 69" fill="none" xmlns="http://www.w3.org/2000/svg">
<path d="M111.176 46.3878H111.129L108.088 53.0393H104.429L101.389 46.3878H101.341V57.0065H97.5166V39.6649H101.65L106.235 49.8798H106.282L110.867 39.6649H115.096V57.0065H111.176V46.3878Z" fill="#F3B300"/>
<path d="M119.053 57.0065V39.6649H123.496V57.0065H119.053Z" fill="#F3B300"/>
<path d="M127.466 57.0065V39.6649H131.41L137.562 50.3074H137.61V39.6649H141.553V57.0065H137.61L131.457 46.364H131.41V57.0065H127.466Z" fill="#F3B300"/>
<path d="M145.523 57.0065V39.6649H149.966V57.0065H145.523Z" fill="#F3B300"/>
<path d="M172.17 43.7034C170.665 42.959 169.082 42.5869 167.419 42.5869C166.595 42.5869 165.97 42.7452 165.542 43.062C165.114 43.3787 164.901 43.8063 164.901 44.3448C164.901 45.2317 165.566 45.8651 166.896 46.2452C169.256 46.8946 170.911 47.6706 171.861 48.5733C172.827 49.476 173.31 50.64 173.31 52.0654C173.31 53.7441 172.74 55.0269 171.6 55.9138C170.459 56.8007 168.773 57.2441 166.54 57.2441C165.542 57.2441 164.505 57.0936 163.428 56.7927C162.351 56.476 161.448 56.0721 160.72 55.5812L161.67 52.4217C163.285 53.5303 164.964 54.0846 166.706 54.0846C167.53 54.0846 168.147 53.9183 168.559 53.5857C168.987 53.2373 169.2 52.7543 169.2 52.1366C169.2 51.6298 169.026 51.2181 168.678 50.9013C168.345 50.5846 167.751 50.2995 166.896 50.0461C164.726 49.4127 163.166 48.6446 162.216 47.7418C161.266 46.8233 160.791 45.6909 160.791 44.3448C160.791 42.8403 161.353 41.6446 162.477 40.7577C163.618 39.8708 165.209 39.4274 167.252 39.4274C169.422 39.4274 171.307 39.8075 172.906 40.5676L172.17 43.7034Z" fill="#F3B300"/>
<path d="M189.044 39.6649V43.0145H184.221V57.0065H180.088V43.0145H175.265V39.6649H189.044Z" fill="#F3B300"/>
<path d="M192.407 41.8267C194.007 40.2271 196.145 39.4274 198.821 39.4274C201.498 39.4274 203.628 40.2271 205.212 41.8267C206.811 43.4262 207.611 45.5959 207.611 48.3357C207.611 51.0755 206.811 53.2452 205.212 54.8448C203.628 56.4443 201.498 57.2441 198.821 57.2441C196.145 57.2441 194.007 56.4443 192.407 54.8448C190.824 53.2452 190.032 51.0755 190.032 48.3357C190.032 45.5959 190.824 43.4262 192.407 41.8267ZM195.377 52.493C196.2 53.4432 197.349 53.9183 198.821 53.9183C200.294 53.9183 201.435 53.4432 202.242 52.493C203.066 51.5427 203.477 50.157 203.477 48.3357C203.477 46.5145 203.066 45.1287 202.242 44.1785C201.435 43.2283 200.294 42.7532 198.821 42.7532C197.349 42.7532 196.2 43.2283 195.377 44.1785C194.569 45.1287 194.165 46.5145 194.165 48.3357C194.165 50.157 194.569 51.5427 195.377 52.493Z" fill="#F3B300"/>
<path d="M214.114 50.5925V57.0065H210.147V39.7837C211.889 39.5461 213.79 39.4274 215.848 39.4274C218.224 39.4274 219.99 39.8787 221.146 40.7814C222.318 41.6683 222.904 42.9353 222.904 44.5823C222.904 45.6434 222.595 46.6016 221.977 47.4568C221.36 48.2961 220.544 48.8979 219.531 49.2622V49.3097C220.354 49.769 221.027 50.7113 221.55 52.1366L223.379 57.0065H219.222L217.583 52.3029C217.361 51.6378 217.092 51.1864 216.775 50.9488C216.458 50.7113 215.967 50.5925 215.302 50.5925H214.114ZM214.114 47.6231H215.445C216.553 47.6231 217.4 47.3934 217.986 46.9341C218.572 46.459 218.865 45.8018 218.865 44.9624C218.865 43.3154 217.781 42.4918 215.611 42.4918C215.041 42.4918 214.542 42.5394 214.114 42.6344V47.6231Z" fill="#F3B300"/>
<path d="M225.082 57.0065L230.95 39.6649H235.226L241.07 57.0065H236.794L235.773 53.2531H230.285L229.287 57.0065H225.082ZM231.116 50.1887H234.965L233.064 43.157H233.017L231.116 50.1887Z" fill="#F3B300"/>
<path d="M251.483 42.6344C249.693 42.6344 248.3 43.1412 247.302 44.1547C246.304 45.1525 245.805 46.5461 245.805 48.3357C245.805 50.1095 246.32 51.5031 247.349 52.5167C248.395 53.5303 249.796 54.0371 251.554 54.0371C252.33 54.0371 253.043 53.9183 253.692 53.6807V49.5235H249.487V46.459H257.541V56.0088C255.609 56.8323 253.478 57.2441 251.15 57.2441C248.268 57.2441 245.972 56.4443 244.261 54.8448C242.551 53.2294 241.696 51.0597 241.696 48.3357C241.696 45.5801 242.527 43.4104 244.19 41.8267C245.853 40.2271 248.149 39.4274 251.079 39.4274C253.296 39.4274 255.213 39.9579 256.828 41.019L255.688 43.9172C254.262 43.062 252.861 42.6344 251.483 42.6344Z" fill="#F3B300"/>
<path d="M264.945 42.9194V46.459H271.525V49.5235H264.945V53.752H272V57.0065H260.906V39.6649H272V42.9194H264.945Z" fill="#F3B300"/>
<path d="M105.194 21.455H113.956V32.0205C111.706 32.8795 109.3 33.309 106.741 33.309C103.597 33.309 101.088 32.4329 99.2158 30.6805C97.3604 28.9282 96.4327 26.5831 96.4327 23.6454C96.4327 20.6389 97.3346 18.2767 99.1385 16.5587C100.96 14.8407 103.494 13.9818 106.741 13.9818C109.283 13.9818 111.431 14.583 113.183 15.7856L111.766 19.4707C110.237 18.5258 108.733 18.0534 107.256 18.0534C105.486 18.0534 104.112 18.543 103.133 19.5222C102.154 20.5015 101.664 21.8759 101.664 23.6454C101.664 25.3977 102.171 26.7721 103.184 27.7685C104.198 28.7478 105.555 29.2374 107.256 29.2374C107.926 29.2374 108.527 29.1515 109.06 28.9797V25.3204H105.194V21.455Z" fill="#0601FF"/>
<path d="M123.323 25.5781H126.725L125.05 18.6203H124.998L123.323 25.5781ZM122.395 29.4436L121.545 33.0513H116.185L122.369 14.2394H127.781L133.966 33.0513H128.503L127.626 29.4436H122.395Z" fill="#0601FF"/>
<path d="M136.706 33.0513V14.2394H142.375V33.0513H136.706Z" fill="#0601FF"/>
<path d="M157.032 24.5473H157.083V14.2394H162.108V33.0513H157.083L151.465 22.7434H151.414V33.0513H146.389V14.2394H151.414L157.032 24.5473Z" fill="#0601FF"/>
<path d="M177.721 21.455V25.3204H171.021V28.9282H178.236V33.0513H165.867V14.2394H178.236V18.3626H171.021V21.455H177.721Z" fill="#0601FF"/>
<path d="M193.993 19.2645C192.258 18.4055 190.497 17.9761 188.71 17.9761C187.903 17.9761 187.293 18.1221 186.881 18.4141C186.468 18.689 186.262 19.0584 186.262 19.5222C186.262 20.2438 186.821 20.7592 187.937 21.0684C190.634 21.79 192.533 22.6575 193.632 23.6712C194.732 24.6676 195.282 25.9475 195.282 27.5108C195.282 29.4006 194.629 30.8437 193.323 31.8401C192.017 32.8194 190.05 33.309 187.422 33.309C186.322 33.309 185.137 33.1286 183.866 32.7679C182.612 32.3899 181.606 31.926 180.851 31.3763L182.01 27.382C182.886 27.9833 183.831 28.4557 184.845 28.7993C185.876 29.1429 186.821 29.3147 187.68 29.3147C189.226 29.3147 189.999 28.7564 189.999 27.6397C189.999 26.9181 189.312 26.3598 187.937 25.9647C185.429 25.2431 183.642 24.3755 182.577 23.3619C181.512 22.3483 180.979 21.0684 180.979 19.5222C180.979 17.8214 181.624 16.4728 182.912 15.4764C184.218 14.48 186.065 13.9818 188.453 13.9818C190.995 13.9818 193.143 14.4112 194.895 15.2702L193.993 19.2645Z" fill="#0601FF"/>
<path d="M205.505 28.1551L209.035 14.2394H214.395L208.211 33.0513H202.799L196.614 14.2394H202.078L205.453 28.1551H205.505Z" fill="#0601FF"/>
<path d="M217.136 33.0513V14.2394H222.805V33.0513H217.136Z" fill="#0601FF"/>
<path d="M232.101 14.2394V28.7993H239.703V33.0513H226.818V14.2394H232.101Z" fill="#0601FF"/>
<path d="M248.106 14.2394V28.7993H255.709V33.0513H242.824V14.2394H248.106Z" fill="#0601FF"/>
<path d="M270.683 21.455V25.3204H263.983V28.9282H271.199V33.0513H258.829V14.2394H271.199V18.3626H263.983V21.455H270.683Z" fill="#0601FF"/>
<path d="M11.0834 36.078L68.6659 19.2651L68.6659 30.5499L11.0834 40.4423L11.0834 36.078Z" fill="#F3B300"/>
<path d="M11.0564 44.5157L68.6659 34.9143L68.6659 45.3886L11.0564 48.8799L11.0564 44.5157Z" fill="#F3B300"/>
<path d="M10.9977 52.3282L68.375 50.0437L68.375 60.518L10.9913 56.4128L10.9977 52.3282Z" fill="#F3B300"/>
<path d="M81.468 0V63.7185H72.7393V11.6381L8.72869 27.3495V57.8995L-3.05176e-05 57.0266V24.44L81.468 0Z" fill="#0601FF"/>
</svg>
