<svg width="178" height="33" viewBox="0 0 178 33" fill="none" xmlns="http://www.w3.org/2000/svg">
<path d="M50.2744 32.116H49.5472V26.4058H47.5796V25.7536H52.242V26.4058H50.2744V32.116ZM57.5033 25.7536C58.0166 25.7536 58.4444 25.8116 58.7723 25.9565C59.1145 26.087 59.3569 26.2754 59.528 26.5507C59.6991 26.8116 59.7704 27.1449 59.7704 27.5652C59.7704 27.8986 59.7134 28.1884 59.585 28.4058C59.471 28.6232 59.3141 28.8116 59.1145 28.9565C58.9149 29.1015 58.7153 29.2029 58.4872 29.2754L60.1981 32.1304H59.3569L57.817 29.4783H56.5195V32.1304H55.7923V25.7681H57.4891L57.5033 25.7536ZM57.4606 26.3913H56.5338V28.8406H57.5318C58.0451 28.8406 58.4159 28.7391 58.6583 28.5218C58.9006 28.3044 59.029 28 59.029 27.5797C59.029 27.1594 58.9006 26.8406 58.644 26.6667C58.3873 26.4928 58.0024 26.3913 57.4606 26.3913ZM67.7835 32.116L67.0136 30.1015H64.5041L63.7342 32.116H62.9928L65.4452 25.7247H66.1011L68.5392 32.116H67.7835ZM66.7997 29.4348L66.0725 27.4348C66.0725 27.4348 66.0298 27.2899 65.987 27.1739C65.9442 27.058 65.9157 26.9275 65.8729 26.7971C65.8302 26.6667 65.8016 26.5652 65.7731 26.4928C65.7446 26.6087 65.7161 26.7247 65.6733 26.8551C65.6448 26.971 65.6163 27.087 65.5735 27.1884C65.545 27.2899 65.5165 27.3768 65.488 27.4348L64.7465 29.4348H66.7997ZM76.9373 32.116H76.0961L72.6884 26.7681H72.6599C72.6599 26.9131 72.6741 27.0725 72.6884 27.2609C72.6884 27.4348 72.7026 27.6377 72.7169 27.8406C72.7169 28.0435 72.7169 28.2464 72.7169 28.4638V32.116H72.0467V25.7536H72.888L76.2957 31.087H76.3242C76.3242 30.9855 76.3242 30.8406 76.2957 30.6522C76.2957 30.4638 76.2815 30.2609 76.2672 30.0435C76.2672 29.8261 76.2672 29.6232 76.2672 29.4348V25.7536H76.9516V32.116H76.9373ZM84.8079 30.4203C84.8079 30.7971 84.7223 31.116 84.5227 31.3913C84.3374 31.6522 84.0807 31.8551 83.7528 32C83.4248 32.1449 83.0256 32.2029 82.5836 32.2029C82.3412 32.2029 82.1273 32.2029 81.9135 32.1739C81.6996 32.1449 81.5142 32.116 81.3289 32.0725C81.1578 32.029 81.0009 31.971 80.8583 31.9131V31.2029C81.0722 31.2899 81.3289 31.3768 81.6426 31.4493C81.9562 31.5218 82.2699 31.5652 82.6121 31.5652C82.9258 31.5652 83.1967 31.5218 83.4106 31.4348C83.6245 31.3478 83.7955 31.2174 83.9096 31.058C84.0237 30.8986 84.0807 30.6957 84.0807 30.4783C84.0807 30.2609 84.0379 30.0725 83.9381 29.9275C83.8383 29.7826 83.6815 29.6522 83.4676 29.5218C83.2537 29.4058 82.9543 29.2754 82.5693 29.1304C82.2984 29.029 82.0703 28.9275 81.8707 28.8116C81.6711 28.6957 81.5 28.5652 81.3574 28.4203C81.2148 28.2754 81.115 28.1015 81.0437 27.9131C80.9724 27.7247 80.9439 27.5073 80.9439 27.2609C80.9439 26.9276 81.0294 26.6377 81.2005 26.3913C81.3716 26.1449 81.614 25.9565 81.9135 25.8406C82.2129 25.7102 82.5693 25.6377 82.9543 25.6377C83.2823 25.6377 83.5959 25.6667 83.8811 25.7391C84.1663 25.7971 84.4229 25.8841 84.6653 26L84.4372 26.6377C84.209 26.5362 83.9667 26.4638 83.7243 26.3913C83.4676 26.3333 83.211 26.2899 82.9401 26.2899C82.6691 26.2899 82.441 26.3333 82.2557 26.4058C82.0703 26.4783 81.9277 26.5942 81.8422 26.7391C81.7424 26.8841 81.6996 27.058 81.6996 27.2609C81.6996 27.4783 81.7424 27.6667 81.8422 27.8116C81.942 27.9565 82.0846 28.087 82.2842 28.2029C82.4838 28.3189 82.7547 28.4348 83.0969 28.5652C83.4676 28.6957 83.7813 28.8406 84.0379 29C84.2946 29.1449 84.4942 29.3333 84.6225 29.5507C84.7509 29.7681 84.8221 30.0435 84.8221 30.3768L84.8079 30.4203ZM90.3543 25.7536C91.1671 25.7536 91.7517 25.9131 92.1224 26.2319C92.4931 26.5507 92.6784 27.0145 92.6784 27.6087C92.6784 27.8841 92.6357 28.1304 92.5501 28.3768C92.4646 28.6232 92.322 28.8261 92.1366 29.0145C91.937 29.2029 91.6804 29.3478 91.3667 29.4493C91.053 29.5507 90.668 29.6087 90.2118 29.6087H89.4561V32.116H88.7289V25.7536H90.3686H90.3543ZM90.2831 26.3913H89.4418V28.9855H90.1262C90.5254 28.9855 90.8534 28.942 91.1243 28.8551C91.3952 28.7681 91.5948 28.6232 91.7231 28.4348C91.8515 28.2319 91.9228 27.971 91.9228 27.6522C91.9228 27.2319 91.7944 26.9131 91.5235 26.7102C91.2526 26.5073 90.8391 26.3913 90.2831 26.3913ZM102.06 28.9275C102.06 29.4203 102.003 29.8696 101.875 30.2754C101.747 30.6812 101.576 31.0145 101.333 31.3044C101.091 31.5942 100.791 31.8116 100.435 31.971C100.078 32.1304 99.665 32.2029 99.1945 32.2029C98.7239 32.2029 98.2819 32.1304 97.9255 31.971C97.569 31.8116 97.2696 31.5942 97.0272 31.3044C96.7848 31.0145 96.6137 30.6667 96.4854 30.2609C96.3713 29.8551 96.3143 29.4058 96.3143 28.9131C96.3143 28.2609 96.4141 27.6957 96.628 27.2029C96.8418 26.7102 97.1555 26.3333 97.5833 26.058C98.011 25.7826 98.5528 25.6522 99.2087 25.6522C99.8646 25.6522 100.349 25.7826 100.777 26.058C101.205 26.3333 101.519 26.7102 101.747 27.2029C101.961 27.6957 102.075 28.2609 102.075 28.9275H102.06ZM97.07 28.9275C97.07 29.4638 97.1413 29.9275 97.2981 30.3333C97.455 30.7246 97.6831 31.029 97.9968 31.2464C98.3105 31.4638 98.7097 31.5652 99.1945 31.5652C99.6792 31.5652 100.078 31.4638 100.392 31.2464C100.706 31.029 100.934 30.7246 101.077 30.3333C101.219 29.942 101.305 29.4783 101.305 28.9275C101.305 28.1015 101.134 27.4638 100.791 27C100.449 26.5362 99.9216 26.3044 99.2087 26.3044C98.7239 26.3044 98.3247 26.4058 98.011 26.6232C97.6973 26.8406 97.4692 27.1304 97.3124 27.5218C97.1555 27.9131 97.0842 28.3768 97.0842 28.9131L97.07 28.9275ZM107.778 25.7536C108.291 25.7536 108.719 25.8116 109.047 25.9565C109.389 26.087 109.632 26.2754 109.803 26.5507C109.974 26.8116 110.045 27.1449 110.045 27.5652C110.045 27.8986 109.988 28.1884 109.86 28.4058C109.746 28.6232 109.589 28.8116 109.389 28.9565C109.189 29.1015 108.99 29.2029 108.762 29.2754L110.473 32.1304H109.631L108.092 29.4783H106.794V32.1304H106.067V25.7681H107.764L107.778 25.7536ZM107.735 26.3913H106.808V28.8406H107.806C108.32 28.8406 108.69 28.7391 108.933 28.5218C109.175 28.3044 109.304 28 109.304 27.5797C109.304 27.1594 109.175 26.8406 108.919 26.6667C108.662 26.4928 108.277 26.3913 107.735 26.3913ZM116.062 32.116H115.335V26.4058H113.367V25.7536H118.03V26.4058H116.062V32.116ZM130.049 30.4203C130.049 30.7971 129.964 31.116 129.764 31.3913C129.579 31.6522 129.322 31.8551 128.994 32C128.666 32.1449 128.267 32.2029 127.825 32.2029C127.583 32.2029 127.369 32.2029 127.155 32.1739C126.941 32.1449 126.756 32.116 126.57 32.0725C126.399 32.029 126.242 31.971 126.1 31.9131V31.2029C126.314 31.2899 126.57 31.3768 126.884 31.4493C127.198 31.5218 127.511 31.5652 127.854 31.5652C128.167 31.5652 128.438 31.5218 128.652 31.4348C128.866 31.3478 129.037 31.2174 129.151 31.058C129.265 30.8986 129.322 30.6957 129.322 30.4783C129.322 30.2609 129.279 30.0725 129.18 29.9275C129.08 29.7826 128.923 29.6522 128.709 29.5218C128.495 29.4058 128.196 29.2754 127.811 29.1304C127.54 29.029 127.312 28.9275 127.112 28.8116C126.913 28.6957 126.741 28.5652 126.599 28.4203C126.456 28.2754 126.356 28.1015 126.285 27.9131C126.214 27.7247 126.185 27.5073 126.185 27.2609C126.185 26.9276 126.271 26.6377 126.442 26.3913C126.613 26.1449 126.855 25.9565 127.155 25.8406C127.454 25.7102 127.811 25.6377 128.196 25.6377C128.524 25.6377 128.837 25.6667 129.123 25.7391C129.408 25.7971 129.664 25.8841 129.907 26L129.679 26.6377C129.45 26.5362 129.208 26.4638 128.966 26.3913C128.709 26.3333 128.452 26.2899 128.181 26.2899C127.911 26.2899 127.682 26.3333 127.497 26.4058C127.312 26.4783 127.169 26.5942 127.084 26.7391C126.984 26.8841 126.941 27.058 126.941 27.2609C126.941 27.4783 126.984 27.6667 127.084 27.8116C127.183 27.9565 127.326 28.087 127.526 28.2029C127.725 28.3189 127.996 28.4348 128.338 28.5652C128.709 28.6957 129.023 28.8406 129.279 29C129.536 29.1449 129.736 29.3333 129.864 29.5507C129.992 29.7681 130.064 30.0435 130.064 30.3768L130.049 30.4203ZM135.553 28.942L137.221 25.7536H138.005L135.924 29.6522V32.116H135.197V29.6812L133.101 25.7536H133.899L135.553 28.942ZM145.035 30.4203C145.035 30.7971 144.949 31.116 144.75 31.3913C144.564 31.6522 144.308 31.8551 143.98 32C143.652 32.1449 143.252 32.2029 142.81 32.2029C142.568 32.2029 142.354 32.2029 142.14 32.1739C141.926 32.1449 141.741 32.116 141.556 32.0725C141.385 32.029 141.228 31.971 141.085 31.9131V31.2029C141.299 31.2899 141.556 31.3768 141.869 31.4493C142.183 31.5218 142.497 31.5652 142.839 31.5652C143.153 31.5652 143.424 31.5218 143.637 31.4348C143.851 31.3478 144.022 31.2174 144.136 31.058C144.251 30.8986 144.308 30.6957 144.308 30.4783C144.308 30.2609 144.265 30.0725 144.165 29.9275C144.065 29.7826 143.908 29.6522 143.694 29.5218C143.481 29.4058 143.181 29.2754 142.796 29.1304C142.525 29.029 142.297 28.9275 142.098 28.8116C141.898 28.6957 141.727 28.5652 141.584 28.4203C141.442 28.2754 141.342 28.1015 141.271 27.9131C141.199 27.7247 141.171 27.5073 141.171 27.2609C141.171 26.9276 141.256 26.6377 141.427 26.3913C141.599 26.1449 141.841 25.9565 142.14 25.8406C142.44 25.7102 142.796 25.6377 143.181 25.6377C143.509 25.6377 143.823 25.6667 144.108 25.7391C144.393 25.7971 144.65 25.8841 144.892 26L144.664 26.6377C144.436 26.5362 144.193 26.4638 143.951 26.3913C143.694 26.3333 143.438 26.2899 143.167 26.2899C142.896 26.2899 142.668 26.3333 142.483 26.4058C142.297 26.4783 142.155 26.5942 142.069 26.7391C141.969 26.8841 141.926 27.058 141.926 27.2609C141.926 27.4783 141.969 27.6667 142.069 27.8116C142.169 27.9565 142.311 28.087 142.511 28.2029C142.711 28.3189 142.982 28.4348 143.324 28.5652C143.694 28.6957 144.008 28.8406 144.265 29C144.521 29.1449 144.721 29.3333 144.849 29.5507C144.978 29.7681 145.049 30.0435 145.049 30.3768L145.035 30.4203ZM150.866 32.116H150.139V26.4058H148.172V25.7536H152.834V26.4058H150.866V32.116ZM159.892 32.116H156.399V25.7536H159.892V26.4058H157.14V28.4638H159.735V29.1015H157.14V31.4638H159.892V32.116ZM166.665 32.116L164.554 26.4783H164.526C164.526 26.5942 164.554 26.7391 164.554 26.9131C164.554 27.087 164.569 27.2754 164.569 27.4783C164.569 27.6812 164.569 27.8841 164.569 28.087V32.116H163.898V25.7536H164.982L166.964 31.0435H166.992L169.003 25.7536H170.072V32.116H169.359V28.0435C169.359 27.8551 169.359 27.6667 169.359 27.4783C169.359 27.2899 169.359 27.1015 169.388 26.942C169.388 26.7681 169.402 26.6232 169.416 26.4928H169.388L167.263 32.116H166.665ZM177.971 30.4203C177.971 30.7971 177.871 31.116 177.686 31.3913C177.501 31.6522 177.244 31.8551 176.916 32C176.588 32.1449 176.189 32.2029 175.747 32.2029C175.505 32.2029 175.291 32.2029 175.077 32.1739C174.863 32.1449 174.678 32.116 174.492 32.0725C174.321 32.029 174.164 31.971 174.022 31.9131V31.2029C174.236 31.2899 174.492 31.3768 174.806 31.4493C175.12 31.5218 175.433 31.5652 175.776 31.5652C176.089 31.5652 176.36 31.5218 176.574 31.4348C176.788 31.3478 176.959 31.2174 177.073 31.058C177.187 30.8986 177.244 30.6957 177.244 30.4783C177.244 30.2609 177.201 30.0725 177.102 29.9275C177.002 29.7826 176.845 29.6522 176.631 29.5218C176.417 29.4058 176.118 29.2754 175.747 29.1304C175.476 29.029 175.248 28.9275 175.048 28.8116C174.849 28.6957 174.678 28.5652 174.535 28.4203C174.392 28.2754 174.293 28.1015 174.221 27.9131C174.15 27.7247 174.122 27.5073 174.122 27.2609C174.122 26.9276 174.207 26.6377 174.378 26.3913C174.549 26.1449 174.792 25.9565 175.091 25.8406C175.391 25.7102 175.747 25.6377 176.132 25.6377C176.46 25.6377 176.774 25.6667 177.059 25.7391C177.344 25.7971 177.601 25.8841 177.843 26L177.615 26.6377C177.387 26.5362 177.144 26.4638 176.902 26.3913C176.645 26.3333 176.389 26.2899 176.118 26.2899C175.847 26.2899 175.619 26.3333 175.433 26.4058C175.248 26.4783 175.105 26.5942 175.02 26.7391C174.92 26.8841 174.877 27.058 174.877 27.2609C174.877 27.4783 174.92 27.6667 175.02 27.8116C175.12 27.9565 175.262 28.087 175.462 28.2029C175.661 28.3189 175.932 28.4348 176.275 28.5652C176.645 28.6957 176.959 28.8406 177.216 29C177.472 29.1449 177.672 29.3333 177.8 29.5507C177.929 29.7681 178 30.0435 178 30.3768L177.971 30.4203Z" fill="#424242"/>
<path d="M62.5702 2.18836L57.038 18.7391H53.2738L47.7559 2.18836H51.2349L54.3004 12.0434C54.3574 12.2028 54.443 12.5217 54.557 12.9855C54.6711 13.4347 54.7994 13.9275 54.9135 14.4347C55.0418 14.942 55.1274 15.3623 55.1702 15.6956C55.2129 15.3623 55.2985 14.942 55.3983 14.4347C55.5123 13.9275 55.6264 13.4492 55.7405 12.9999C55.8545 12.5362 55.9401 12.2173 55.9971 12.0434L59.0769 2.18836H62.5559H62.5702ZM77.4273 18.7391H68.0454V2.18836H77.4273V5.05792H71.4958V8.6956H77.0138V11.5652H71.4958V15.826H77.4273V18.7246V18.7391ZM89.005 2.18836C90.4878 2.18836 91.6998 2.36227 92.6551 2.73908C93.6247 3.1014 94.3376 3.65213 94.8081 4.37676C95.2786 5.11589 95.5067 6.02894 95.5067 7.14488C95.5067 7.8985 95.3642 8.56517 95.079 9.13038C94.7938 9.6956 94.4231 10.1739 93.9669 10.5652C93.5106 10.9565 93.0115 11.2753 92.4697 11.5217L97.2605 18.7391H93.425L89.5325 12.3913H87.6932V18.7391H84.2427V2.18836H88.9907H89.005ZM88.7626 5.05792H87.7217V9.53618H88.8339C89.9745 9.53618 90.7873 9.34778 91.2863 8.95647C91.7853 8.56517 92.0277 7.98546 92.0277 7.23184C92.0277 6.47821 91.7568 5.88401 91.2293 5.55068C90.7017 5.21734 89.8747 5.05792 88.7626 5.05792ZM109.024 18.7391H105.573V5.1014H101.153V2.17387H113.444V5.1014H109.024V18.7246V18.7391ZM119.375 18.7391V2.18836H122.826V18.7391H119.375ZM137.269 4.86952C136.613 4.86952 136.029 4.99995 135.515 5.26082C135.016 5.52169 134.589 5.88401 134.232 6.37676C133.89 6.86952 133.633 7.46372 133.448 8.15937C133.263 8.85502 133.177 9.63763 133.177 10.5072C133.177 11.6811 133.32 12.6811 133.605 13.5072C133.89 14.3333 134.346 14.9565 134.945 15.3913C135.544 15.826 136.328 16.0434 137.269 16.0434C137.925 16.0434 138.595 15.971 139.251 15.8115C139.921 15.6666 140.648 15.4492 141.418 15.1594V18.1014C140.691 18.4057 139.992 18.6231 139.294 18.7536C138.595 18.884 137.811 18.9565 136.941 18.9565C135.259 18.9565 133.876 18.6086 132.792 17.8985C131.708 17.1884 130.924 16.2028 130.397 14.9275C129.883 13.6521 129.612 12.1594 129.612 10.4637C129.612 9.21734 129.784 8.05792 130.112 7.02894C130.439 5.98546 130.938 5.08691 131.58 4.31879C132.222 3.55068 133.02 2.97097 133.976 2.55068C134.931 2.13039 136.014 1.92749 137.255 1.92749C138.068 1.92749 138.88 2.02894 139.679 2.24633C140.492 2.44923 141.276 2.73908 142.017 3.1014L140.905 5.95647C140.292 5.66662 139.679 5.40575 139.066 5.18836C138.453 4.97097 137.839 4.85502 137.255 4.85502L137.269 4.86952ZM158.286 18.7391L157.102 14.797H151.171L149.988 18.7391H146.266L152.012 2.1159H156.233L162.007 18.7391H158.286ZM156.275 11.855L155.092 7.99995C155.021 7.73908 154.921 7.42024 154.793 7.01444C154.678 6.60865 154.55 6.18836 154.422 5.78256C154.308 5.36227 154.208 4.99995 154.137 4.68111C154.065 4.98546 153.966 5.37676 153.823 5.84053C153.695 6.28981 153.581 6.72459 153.452 7.13039C153.338 7.53618 153.253 7.82604 153.196 7.99995L152.026 11.855H156.275ZM167.482 18.7391V2.18836H170.933V15.8405H177.534V18.7391H167.482Z" fill="#424242"/>
<path d="M17.6802 13.1015L16.1118 11.058L23.1697 0.0290527L24.9662 1.85514L17.6945 13.116L17.6802 13.1015Z" fill="url(#paint0_linear_95_28)"/>
<path d="M12.419 32.6665L10.8506 30.6231L13.0891 27.1013L14.5435 29.3767L12.419 32.681V32.6665Z" fill="url(#paint1_linear_95_28)"/>
<path d="M18.2505 23.7826L16.6821 21.3913L30.8976 0L32.6941 1.82609L18.2505 23.7826Z" fill="url(#paint2_linear_95_28)"/>
<path d="M16.454 6.95644L14.8856 9.2318L12.3049 5.13036H4.47709L19.0205 28.1159L36.715 1.49268L38.6113 3.42021L19.0205 32.9999L0 2.85499H13.8733L16.454 6.95644Z" fill="url(#paint3_linear_95_28)"/>
<defs>
<linearGradient id="paint0_linear_95_28" x1="20.5176" y1="0.01456" x2="20.5765" y2="25.9566" gradientUnits="userSpaceOnUse">
<stop stop-color="#88D23A"/>
<stop offset="1" stop-color="#0079E0"/>
</linearGradient>
<linearGradient id="paint1_linear_95_28" x1="12.7042" y1="27.0868" x2="12.7042" y2="32.6665" gradientUnits="userSpaceOnUse">
<stop stop-color="#0075D8"/>
<stop offset="0.74" stop-color="#0079E0"/>
</linearGradient>
<linearGradient id="paint2_linear_95_28" x1="24.681" y1="0.0144927" x2="24.681" y2="23.7826" gradientUnits="userSpaceOnUse">
<stop stop-color="#88D23A"/>
<stop offset="0.74" stop-color="#0079E0"/>
</linearGradient>
<linearGradient id="paint3_linear_95_28" x1="19.3057" y1="1.49268" x2="19.3057" y2="32.9999" gradientUnits="userSpaceOnUse">
<stop stop-color="#88D23A"/>
<stop offset="0.74" stop-color="#0079E0"/>
</linearGradient>
</defs>
</svg>
