<!-- Generated by IcoMoon.io -->
<svg version="1.1" xmlns="http://www.w3.org/2000/svg" width="30" height="32" viewBox="0 0 30 32">
<title>g</title>
<path d="M16.615 32c-2.338 0-4.554-0.369-6.646-1.108v0c-1.969-0.738-3.815-1.969-5.292-3.323-1.477-1.477-2.708-3.2-3.446-5.046-0.862-1.969-1.231-4.062-1.231-6.4s0.369-4.431 1.231-6.4c0.862-1.969 1.969-3.692 3.446-5.046 1.6-1.6 3.323-2.708 5.415-3.446 1.969-0.738 4.185-1.231 6.646-1.231s4.677 0.369 6.769 1.231c2.092 0.862 3.815 2.092 5.292 3.692l0.738 0.862-4.185 4.185-0.862-0.862c-1.108-0.985-2.338-1.723-3.569-2.215-2.585-0.985-5.662-0.985-8.246 0-1.231 0.492-2.338 1.231-3.323 2.092-0.862 0.862-1.477 1.846-2.092 3.077-0.492 1.231-0.738 2.462-0.738 3.938 0 1.354 0.246 2.708 0.738 3.938s1.231 2.215 2.092 3.077c0.862 0.862 1.969 1.6 3.2 2.092 2.462 0.985 5.538 0.985 8.123 0.123 0.492-0.123 0.985-0.369 1.477-0.738v-9.969h6.4v13.046l-0.246 0.492c-1.6 1.354-3.323 2.338-5.415 2.954-1.969 0.615-4.062 0.985-6.277 0.985zM16.738 1.231c-2.215 0-4.308 0.369-6.154 1.108-1.969 0.738-3.569 1.723-4.923 3.077s-2.462 2.831-3.2 4.677c-0.862 1.846-1.231 3.815-1.231 5.908s0.369 4.062 1.108 5.908 1.846 3.323 3.2 4.677c1.354 1.354 2.954 2.338 4.923 3.077v0c3.446 1.354 8 1.354 11.938 0.123 1.969-0.615 3.569-1.6 5.046-2.708v0-11.323h-3.938v9.354l-0.246 0.123c-0.615 0.369-1.354 0.738-2.092 0.985-2.954 0.985-6.277 0.985-8.985-0.123-1.354-0.492-2.585-1.354-3.692-2.338-0.985-0.985-1.846-2.215-2.338-3.569s-0.862-2.831-0.862-4.431c0-1.6 0.246-3.077 0.862-4.431 0.615-1.108 1.354-2.338 2.462-3.323 0.985-0.985 2.338-1.723 3.692-2.338 2.831-1.108 6.4-1.108 9.108 0 1.354 0.492 2.708 1.354 3.938 2.462l2.585-2.585c-1.354-1.477-2.954-2.585-4.8-3.323-2.092-0.615-4.185-0.985-6.4-0.985z"></path>
</svg>
