<svg width="60" height="52" viewBox="0 0 60 52" fill="none" xmlns="http://www.w3.org/2000/svg">
<path d="M2 1L1 2L0 3V18H1H2V16V11L3 10H6H16H18H19H41H42V8H18H12H3L2 7V4L3 3H4H9H13H46H51H56H57L58 4V5V7L57 8H48H43L44 10H47H48H49H50H54H57L58 11V13V16V18H60V3L59 2H58L57 1H56H50H45H42H18H15H10H4H3H2Z" fill="#6C6C6C"/>
<path d="M20 49H19V50H20V49Z" fill="#6C6C6C"/>
<path d="M41 49H40V50H41V49Z" fill="#6C6C6C"/>
<path d="M27 19L26 20L27 21H28L29 22V24H31V23H32L33 24H34H35V23L34 22L33 21H32L31 20V19H29H28H27Z" fill="#717171"/>
<path d="M29 28V29H31V28H29Z" fill="#717171"/>
<path d="M10 34V35H14V34H13H10Z" fill="#717171"/>
<path d="M16 34V35H18H23H26H34H37H42H44V34H16Z" fill="#717171"/>
<path d="M47 34H46V35H47V34Z" fill="#717171"/>
<path d="M1 41V42V43H2H3L4 44H15H23V45V46L22 47V48V49H24V48L25 47V46L26 45L34 44L35 45V46L36 47V48V49H38V48V47L37 46V45L46 44H56L57 43H58H59V42V41H58H57L56 42H55H51H49H46H44H41H35H25H19H18H17H14H13H10H8H5H4L3 41H2H1Z" fill="#717171"/>
<path d="M58 1H57V2H58V1Z" fill="#6D6D6D"/>
<path d="M42 8V10H44L43 8H42Z" fill="#6D6D6D"/>
<path d="M29 13L28 14L27 15H26L25 16V17V18H27V17L28 16L29 17V18H31V17L32 16L33 17H34V16V15H33H32L31 14V13H29Z" fill="#6D6D6D"/>
<path d="M20 49L19 50V51H20H40H41V50L40 49H39H38H36H35H25H24H22H21H20Z" fill="#6D6D6D"/>
<path d="M10 0V1H15V0H12H10Z" fill="#FAFAFA"/>
<path d="M18 0V1H42V0H18Z" fill="#FAFAFA"/>
<path d="M45 0V1H50V0H48H45Z" fill="#FAFAFA"/>
<path d="M9 3V4H12H13V3H9Z" fill="#FAFAFA"/>
<path d="M46 3V4H48H51V3H46Z" fill="#FAFAFA"/>
<path d="M32 19H31V20H32V19Z" fill="#FAFAFA"/>
<path d="M28 22V25H29V24V22H28Z" fill="#FAFAFA"/>
<path d="M31 23V24V25V26H32V25V24V23H31Z" fill="#FAFAFA"/>
<path d="M29 28H28V29H29V28Z" fill="#FAFAFA"/>
<path d="M32 28H31V29H32V28Z" fill="#FAFAFA"/>
<path d="M26 46H25V47H26V46Z" fill="#FAFAFA"/>
<path d="M21 48L19 49H20H21V48Z" fill="#FAFAFA"/>
<path d="M25 48V49H35V48H25Z" fill="#FAFAFA"/>
<path d="M39 48V49H40H41L39 48Z" fill="#FAFAFA"/>
<path d="M20 51V52H40V51H20Z" fill="#FAFAFA"/>
<path d="M2 18H1V19H2V18Z" fill="#707070"/>
<path d="M0 25V27L2 28V26V25H0Z" fill="#707070"/>
<path d="M58 25V26V28L60 27V25H58Z" fill="#707070"/>
<path d="M2 29L0 30V40L1 41H2V40V36L3 35H10V34H4L3 33L2 29Z" fill="#707070"/>
<path d="M58 29L57 33L56 34H47V35H57L58 36V41H59L60 40V30L58 29Z" fill="#707070"/>
<path d="M14 34V35H16V34H15H14Z" fill="#707070"/>
<path d="M44 34V35H46V34H44Z" fill="#707070"/>
<path d="M15 0V1H18V0H15Z" fill="#F9F9F9"/>
<path d="M42 0V1H45V0H42Z" fill="#F9F9F9"/>
<path d="M13 3V4H46V3H13Z" fill="#F9F9F9"/>
<path d="M25 16H24V17H25V16Z" fill="#F9F9F9"/>
<path d="M28 17V18V19H29V18V17H28Z" fill="#F9F9F9"/>
<path d="M31 17V18V19H32V17H31Z" fill="#F9F9F9"/>
<path d="M32 14H31V15H32V14Z" fill="#6F6F6F"/>
<path d="M35 16H34V17H35V16Z" fill="#6F6F6F"/>
<path d="M0 18V23V25H2V20V19L1 18H0Z" fill="#6F6F6F"/>
<path d="M58 18V19V20V25H60V23V18H58Z" fill="#6F6F6F"/>
<path d="M0 27V30L2 29V28L0 27Z" fill="#6F6F6F"/>
<path d="M60 27L58 28V29L60 30V27Z" fill="#6F6F6F"/>
<path d="M14 33H13V34H14V33Z" fill="#7A7A7A"/>
<path d="M16 33V34H44V33H40H19H16Z" fill="#7A7A7A"/>
<path d="M47 33H46V34H47V33Z" fill="#7A7A7A"/>
<path d="M3 43H2V44H3V43Z" fill="#7A7A7A"/>
<path d="M58 43H57V44H58V43Z" fill="#7A7A7A"/>
<path d="M19 50H18V51H19V50Z" fill="#7A7A7A"/>
<path d="M42 50H41V51H42V50Z" fill="#7A7A7A"/>
<path d="M4 33V34H10H13V33H4Z" fill="#787878"/>
<path d="M15 33H14V34H15V33Z" fill="#787878"/>
<path d="M44 33V34H46V33H44Z" fill="#787878"/>
<path d="M47 33V34H56V33H47Z" fill="#787878"/>
<path d="M3 35V36H13H16V35H14H10H3Z" fill="#ACACAC"/>
<path d="M47 35V36H57V35H47Z" fill="#ACACAC"/>
<path d="M60 41H59V42H60V41Z" fill="#ACACAC"/>
<path d="M20 10V11H41V10H20Z" fill="#D6D6D6"/>
<path d="M26 20H25V21H26V20Z" fill="#D6D6D6"/>
<path d="M2 20V25V26H3V23V20H2Z" fill="#BCBCBC"/>
<path d="M57 20V23V26H58V25V20H57Z" fill="#BCBCBC"/>
<path d="M2 36V40H3V36H2Z" fill="#BCBCBC"/>
<path d="M57 36V41H58V36H57Z" fill="#BCBCBC"/>
<path d="M18 35V36H20H23V35H18Z" fill="#A8A8A8"/>
<path d="M26 35V36H34V35H26Z" fill="#A8A8A8"/>
<path d="M37 35V36H40H42V35H37Z" fill="#A8A8A8"/>
<path d="M38 46H37V47H38V46Z" fill="#A8A8A8"/>
<path d="M6 10V11H11H16V10H6Z" fill="#D2D2D2"/>
<path d="M44 10V11H47V10H44Z" fill="#D2D2D2"/>
<path d="M49 10H48V11H49V10Z" fill="#D2D2D2"/>
<path d="M50 10V11H54V10H50Z" fill="#D2D2D2"/>
<path d="M33 24V25L32 26V27H33H34L35 26V25L34 24H33Z" fill="#737373"/>
<path d="M25 25V26L26 27H27L28 28H29L31 27V26V25H29L28 26L27 25H26H25Z" fill="#737373"/>
<path d="M2 26V28V29L3 33V27V26H2Z" fill="#BDBDBD"/>
<path d="M57 26V27V33L58 29V28V26H57Z" fill="#BDBDBD"/>
<path d="M5 41H4V42H5V41Z" fill="#BDBDBD"/>
<path d="M56 41H55V42H56V41Z" fill="#BDBDBD"/>
<path d="M25 18V19V20H26L27 19V18H25Z" fill="#727272"/>
<path d="M29 18V19H31V18H29Z" fill="#727272"/>
<path d="M35 22H34V23H35V22Z" fill="#727272"/>
<path d="M29 24V25H31V24H29Z" fill="#727272"/>
<path d="M35 24H34V25H35V24Z" fill="#727272"/>
<path d="M31 27L29 28H31H32V27H31Z" fill="#727272"/>
<path d="M19 41V42H25V41H19Z" fill="#C6C6C6"/>
<path d="M35 41V42H41V41H35Z" fill="#C6C6C6"/>
<path d="M36 48H35V49H36V48Z" fill="#C6C6C6"/>
<path d="M2 1H1V2H2V1Z" fill="#BEBEBE"/>
<path d="M59 1H58V2H59V1Z" fill="#BEBEBE"/>
<path d="M5 41V42H8V41H5Z" fill="#BEBEBE"/>
<path d="M51 41V42H55V41H51Z" fill="#BEBEBE"/>
<path d="M36 47H35V48H36V47Z" fill="#BEBEBE"/>
<path d="M39 48H38V49H39V48Z" fill="#BEBEBE"/>
<path d="M57 5V7H58V5H57Z" fill="#D1D1D1"/>
<path d="M3 10V11H6V10H3Z" fill="#D1D1D1"/>
<path d="M48 10H47V11H48V10Z" fill="#D1D1D1"/>
<path d="M50 10H49V11H50V10Z" fill="#D1D1D1"/>
<path d="M54 10V11H57V10H54Z" fill="#D1D1D1"/>
<path d="M36 25H35V26H36V25Z" fill="#D1D1D1"/>
<path d="M3 7H2V8H3V7Z" fill="#CFCFCF"/>
<path d="M2 11V16H3V11H2Z" fill="#CFCFCF"/>
<path d="M57 13V16H58V13H57Z" fill="#CFCFCF"/>
<path d="M25 17H24V18H25V17Z" fill="#CFCFCF"/>
<path d="M25 41V42H35V41H25Z" fill="#C8C8C8"/>
<path d="M14 41V42H17H18H19V41H14Z" fill="#C5C5C5"/>
<path d="M41 41V42H44V41H41Z" fill="#C5C5C5"/>
<path d="M22 48H21V49H22V48Z" fill="#C5C5C5"/>
<path d="M4 3H3V4H4V3Z" fill="#D4D4D4"/>
<path d="M57 3H56V4H57V3Z" fill="#D4D4D4"/>
<path d="M16 10V11H18V10H16Z" fill="#D4D4D4"/>
<path d="M42 10V11H44V10H42Z" fill="#D4D4D4"/>
<path d="M25 18H24V19H25V18Z" fill="#D4D4D4"/>
<path d="M2 40H3V41H4V42H3V41H2V40Z" fill="#B9B9B9"/>
<path d="M57 41H56V42H57V41Z" fill="#B9B9B9"/>
<path d="M28 21H27V22H28V21Z" fill="#C2C2C2"/>
<path d="M29 25H28V26H29V25Z" fill="#C2C2C2"/>
<path d="M33 25H32V26H33V25Z" fill="#C2C2C2"/>
<path d="M34 27H33V28H34V27Z" fill="#C2C2C2"/>
<path d="M10 41V42H13V41H10Z" fill="#C2C2C2"/>
<path d="M46 41V42H49V41H46Z" fill="#C2C2C2"/>
<path d="M8 41V42H10V41H8Z" fill="#C0C0C0"/>
<path d="M49 41V42H51V41H49Z" fill="#C0C0C0"/>
<path d="M16 35V36H18V35H16Z" fill="#ABABAB"/>
<path d="M42 35V36H47V35H46H44H42Z" fill="#ABABAB"/>
<path d="M2 4V7H3V4H2Z" fill="#D0D0D0"/>
<path d="M58 4H57V5H58V4Z" fill="#D0D0D0"/>
<path d="M58 7H57V8H58V7Z" fill="#D0D0D0"/>
<path d="M57 11V13H58V11H57Z" fill="#D0D0D0"/>
<path d="M3 19H2V20H3V19Z" fill="#C3C3C3"/>
<path d="M58 19H57V20H58V19Z" fill="#C3C3C3"/>
<path d="M27 27H26V28H27V27Z" fill="#C3C3C3"/>
<path d="M14 41H13V42H14V41Z" fill="#C3C3C3"/>
<path d="M44 41V42H46V41H44Z" fill="#C3C3C3"/>
<path d="M2 16V18V19H3V16H2Z" fill="#CBCBCB"/>
<path d="M57 16V19H58V18V16H57Z" fill="#CBCBCB"/>
<path d="M23 35V36H26V35H23Z" fill="#A9A9A9"/>
<path d="M34 35V36H37V35H34Z" fill="#A9A9A9"/>
<path d="M33 14H32V15H33V14Z" fill="#B7B7B7"/>
<path d="M36 24H35V25H36V24Z" fill="#B7B7B7"/>
<path d="M25 48H24V49H25V48Z" fill="#B7B7B7"/>
<path d="M18 10V11H20V10H19H18Z" fill="#D7D7D7"/>
<path d="M42 10H41V11H42V10Z" fill="#D7D7D7"/>
<path d="M28 18H27V19H28V18Z" fill="#D7D7D7"/>
<path d="M4 33H3V34H4V33Z" fill="#777777"/>
<path d="M16 33H15V34H16V33Z" fill="#777777"/>
<path d="M57 33H56V34H57V33Z" fill="#777777"/>
<path d="M28 14H27V15H28V14Z" fill="#989898"/>
<path d="M28 25H27V26H28V25Z" fill="#989898"/>
<path d="M32 20H31V21H32V20Z" fill="#939393"/>
<path d="M34 21H33V22H34V21Z" fill="#939393"/>
<path d="M31 26H32V27H33V28H32V27H31V26Z" fill="#747474"/>
<path d="M1 41H0V42H1V41Z" fill="#A5A5A5"/>
<path d="M4 0H3V1H4V0Z" fill="#FCFCFC"/>
<path d="M57 0H56V1H57V0Z" fill="#FCFCFC"/>
<path d="M1 40H0V41H1V40Z" fill="#717171"/>
<path d="M60 40H59V41H60V40Z" fill="#717171"/>
<path d="M3 3H2V4H3V3Z" fill="#6D6D6D"/>
<path d="M58 3H57V4H58V3Z" fill="#6D6D6D"/>
<path d="M33 20H32V21H33V20Z" fill="#FAFAFA"/>
<path d="M35 21H34V22H35V21Z" fill="#FAFAFA"/>
<path d="M32 22H31V23H32V22Z" fill="#7A7A7A"/>
<path d="M36 46H35V47H36V46Z" fill="#7A7A7A"/>
<path d="M25 47H24V48H25V47Z" fill="#7A7A7A"/>
<path d="M19 49H18V50H19V49Z" fill="#787878"/>
<path d="M42 49H41V50H42V49Z" fill="#787878"/>
<path d="M29 16H28V17H29V16Z" fill="#D6D6D6"/>
<path d="M58 10H57V11H58V10Z" fill="#BCBCBC"/>
<path d="M27 20H26V21H27V20Z" fill="#737373"/>
<path d="M29 21H28V22H29V21Z" fill="#737373"/>
<path d="M3 10H2V11H3V10Z" fill="#BDBDBD"/>
<path d="M18 42H17V43H18V42Z" fill="#727272"/>
<path d="M4 43H3V44H4V43Z" fill="#727272"/>
<path d="M57 43H56V44H57V43Z" fill="#727272"/>
<path d="M26 15H25V16H26V15Z" fill="#BEBEBE"/>
<path d="M35 44H34V45H35V44Z" fill="#BEBEBE"/>
<path d="M33 23H32V24H33V23Z" fill="#D1D1D1"/>
<path d="M1 2H0V3H1V2Z" fill="#B9B9B9"/>
<path d="M35 15H34V16H35V15Z" fill="#B9B9B9"/>
<path d="M36 23H35V24H36V23Z" fill="#B9B9B9"/>
<path d="M25 24H26V25H25V26H24V25H25V24Z" fill="#B9B9B9"/>
<path d="M23 46H22V47H23V46Z" fill="#B9B9B9"/>
<path d="M32 16H31V17H32V16Z" fill="#C2C2C2"/>
<path d="M26 45H25V46H26V45Z" fill="#B7B7B7"/>
<path d="M27 14H26V15H27V14Z" fill="#F8F8F8"/>
<path d="M34 14H33V15H34V14Z" fill="#F8F8F8"/>
<path d="M26 26H25V27H26V26Z" fill="#777777"/>
<path d="M35 26H34V27H35V26Z" fill="#989898"/>
<path d="M3 35H2V36H3V35Z" fill="#939393"/>
<path d="M58 35H57V36H58V35Z" fill="#939393"/>
<path d="M28 27H27V28H28V27Z" fill="#959595"/>
<path d="M24 44H23V45H24V44Z" fill="#959595"/>
<path d="M60 2H59V3H60V2Z" fill="#9D9D9D"/>
<path d="M28 16H27V17H28V16Z" fill="#9D9D9D"/>
<path d="M33 16H32V17H33V16Z" fill="#8B8B8B"/>
<path d="M38 45H37V46H38V45Z" fill="#E0E0E0"/>
<path d="M29 19H28V20H29V19Z" fill="#919191"/>
</svg>
