<svg width="84" height="60" viewBox="0 0 84 60" fill="none" xmlns="http://www.w3.org/2000/svg">
<path d="M16 51L15 52V53V54L16 55H17H20H60H67L68 54L69 53V52L68 51H67H65H63H30H25H22H21H17H16Z" fill="#6C6C6C"/>
<path d="M20 55V56H26H27H56H60V55H20Z" fill="#FBFBFB"/>
<path d="M22 50V51H25V50H22Z" fill="#D2D2D2"/>
<path d="M30 50V51H63V50H30Z" fill="#D2D2D2"/>
<path d="M17 55L18 56H20V55H17Z" fill="#FCFCFC"/>
<path d="M60 55V56L67 55H60Z" fill="#FCFCFC"/>
<path d="M17 50V51H21V50H17Z" fill="#CDCDCD"/>
<path d="M69 54H68V55H69V54Z" fill="#CDCDCD"/>
<path d="M22 50H21V51H22V50Z" fill="#D1D1D1"/>
<path d="M25 50V51H30V50H25Z" fill="#D1D1D1"/>
<path d="M65 50V51H67V50H65Z" fill="#CBCBCB"/>
<path d="M63 50V51H65V50H63Z" fill="#CCCCCC"/>
<path d="M15 53H14V54H15V53Z" fill="#CFCFCF"/>
<path d="M28 24L26 29H27L28 24Z" fill="#FEFEFE"/>
<path d="M30 24V29H31H32H53V24H30Z" fill="#FEFEFE"/>
<path d="M32 39V40H52V39H32Z" fill="white"/>
<path d="M17 15L15 19H16H17H22H25H58V15H65L64 13H19H17L14 14L17 15Z" fill="#FDFDFD"/>
<path d="M17 23V29H26L28 24L27 29H28H30V24H53V29H55V24L58 23H25H23H17Z" fill="#FDFDFD"/>
<path d="M64 23H63V24H64V23Z" fill="#FDFDFD"/>
<path d="M15 30H14V31H15V30Z" fill="#FDFDFD"/>
<path d="M15 32H14V33H15V32Z" fill="#FDFDFD"/>
<path d="M16 39H32H52H56L57 34H25H23H21H17H16V39Z" fill="#FDFDFD"/>
<path d="M14 43H15V44H16V45H17H19H21H22H26V48H19L16 45H15V44H14V43Z" fill="#FDFDFD"/>
<path d="M30 47L32 45H30H27L30 47Z" fill="#FDFDFD"/>
<path d="M68 50H67V51H68V50Z" fill="#FDFDFD"/>
<path d="M6 58H5V59H6V58Z" fill="#FDFDFD"/>
<path d="M75 59H74V60H75V59Z" fill="#FDFDFD"/>
<path d="M21 0L23 4H62L63 0H21Z" fill="#6E6E6E"/>
<path d="M20 9L19 13H64H74L68 12L70 9H67H66H63H52H32H21H20Z" fill="#6E6E6E"/>
<path d="M6 18V20V24V28H10V18H6Z" fill="#6E6E6E"/>
<path d="M75 25L78 27V25V24V20V18H75V25Z" fill="#6E6E6E"/>
<path d="M74 28V49H78V48V46L75 45V35H78V28H74Z" fill="#6E6E6E"/>
<path d="M15 30V31V32V33H16H17H21H23H24V30H17H16H15Z" fill="#6E6E6E"/>
<path d="M62 30V33H67H68L69 32V31L68 30H67H63H62Z" fill="#6E6E6E"/>
<path d="M23 40V44H30H59H60H63H66H67H68L69 43V42L68 41L67 40H52H32H23Z" fill="#6E6E6E"/>
<path d="M77 59H76V60H77V59Z" fill="#6E6E6E"/>
<path d="M2 0L1 1V2V3V4H2H3H7H13H20H21H23L21 0H2Z" fill="#6D6D6D"/>
<path d="M63 0L62 4H63H78H81H82L83 3V2V1L82 0H63Z" fill="#6D6D6D"/>
<path d="M7 9L6 10V11V15V18H10L12 13H17H19L20 9H10H8H7Z" fill="#6D6D6D"/>
<path d="M68 12L74 13V18H75H78V16V14V11V10L77 9H76H70L68 12Z" fill="#6D6D6D"/>
<path d="M6 28V35V36V39V44V49H10V28H6Z" fill="#6D6D6D"/>
<path d="M75 45L78 46V45V43V39V38V35H75V45Z" fill="#6D6D6D"/>
<path d="M17 40L16 41H15V42V43V44H16H17H19H21H22H23V40H17Z" fill="#6D6D6D"/>
<path d="M74 49V58L75 59H76H77H78V58V57V56V52V49H74Z" fill="#6D6D6D"/>
<path d="M68 53H69V54H68V55H67V54H68V53Z" fill="#6D6D6D"/>
<path d="M8 59H7V60H8V59Z" fill="#6D6D6D"/>
<path d="M6 49V56V58V59H7H8H9L10 58V49H6Z" fill="#6C6C6C"/>
<path d="M74 18V28H78V27L75 25V18H74Z" fill="#6F6F6F"/>
<path d="M17 19L16 20H15V21V22L16 23H17H23L22 19H17Z" fill="#6F6F6F"/>
<path d="M62 20V23H63H64H67L68 22H69V21L68 20H67H62Z" fill="#6F6F6F"/>
<path d="M24 30V33H25H60H61H62V30H61H53H32H31H28H24Z" fill="#6F6F6F"/>
<path d="M17 40H16V41H17V40Z" fill="#6F6F6F"/>
<path d="M25 19V23H58H59L60 19H58H25Z" fill="#717171"/>
<path d="M69 20H68V21H69V20Z" fill="#717171"/>
<path d="M21 33V34H23V33H21Z" fill="#717171"/>
<path d="M61 33V34H67V33H62H61Z" fill="#717171"/>
<path d="M21 4V5H62V4H23H21Z" fill="#B4B4B4"/>
<path d="M32 8V9H52V8H32Z" fill="#B4B4B4"/>
<path d="M13 4V5H20V4H13Z" fill="#B7B7B7"/>
<path d="M78 4V5H81V4H78Z" fill="#B7B7B7"/>
<path d="M8 8V9H10V8H8Z" fill="#B7B7B7"/>
<path d="M78 11V14H79V11H78Z" fill="#B7B7B7"/>
<path d="M78 25V27V28V35H79V25H78Z" fill="#B7B7B7"/>
<path d="M30 44V45H32H52H55H59V44H30Z" fill="#B7B7B7"/>
<path d="M60 44V45H63V44H60Z" fill="#B7B7B7"/>
<path d="M15 20H14V21H15V20Z" fill="#FBFBFB"/>
<path d="M10 59H9V60H10V59Z" fill="#FBFBFB"/>
<path d="M84 1H83V2H84V1Z" fill="#B6B6B6"/>
<path d="M21 4H20V5H21V4Z" fill="#B6B6B6"/>
<path d="M63 4V5H78V4H63Z" fill="#B6B6B6"/>
<path d="M10 8V9H20H21V8H10Z" fill="#B6B6B6"/>
<path d="M67 8H66V9H67V8Z" fill="#B6B6B6"/>
<path d="M77 8H76V9H77V8Z" fill="#B6B6B6"/>
<path d="M78 16V18V20H79V16H78Z" fill="#B6B6B6"/>
<path d="M16 19H15V20H16V19Z" fill="#B6B6B6"/>
<path d="M79 24H78V25H79V24Z" fill="#B6B6B6"/>
<path d="M25 33V34H57H60V33H25Z" fill="#737373"/>
<path d="M22 19L23 23H25V19H22Z" fill="#707070"/>
<path d="M60 19L59 23H62V20H67V19H60Z" fill="#707070"/>
<path d="M17 33V34H21V33H17Z" fill="#707070"/>
<path d="M67 40H68V41H69V42H68V41H67V40Z" fill="#707070"/>
<path d="M21 8V9H32V8H21Z" fill="#B3B3B3"/>
<path d="M52 8V9H63V8H52Z" fill="#B3B3B3"/>
<path d="M78 20V24H79V20H78Z" fill="#B3B3B3"/>
<path d="M1 2H0V3H1V2Z" fill="#B8B8B8"/>
<path d="M7 4V5H13V4H7Z" fill="#B8B8B8"/>
<path d="M79 38H78V39H79V38Z" fill="#B8B8B8"/>
<path d="M78 43V45H79V43H78Z" fill="#B8B8B8"/>
<path d="M22 44V45H26H27H30V44H23H22Z" fill="#B8B8B8"/>
<path d="M60 44H59V45H60V44Z" fill="#B8B8B8"/>
<path d="M63 44V45H66V44H63Z" fill="#B8B8B8"/>
<path d="M16 54H15V55H16V54Z" fill="#B8B8B8"/>
<path d="M28 29V30H31V29H30H28Z" fill="#A1A1A1"/>
<path d="M32 29V30H53V29H32Z" fill="#A1A1A1"/>
<path d="M17 29V30H24H28V29H27H26H17Z" fill="#A0A0A0"/>
<path d="M32 29H31V30H32V29Z" fill="#A0A0A0"/>
<path d="M53 29V30H61V29H55H53Z" fill="#A0A0A0"/>
<path d="M5 35V39H6V36V35H5Z" fill="#C4C4C4"/>
<path d="M5 44V56H6V49V44H5Z" fill="#C4C4C4"/>
<path d="M7 59H6V60H7V59Z" fill="#C4C4C4"/>
<path d="M1 1H0V2H1V1Z" fill="#B9B9B9"/>
<path d="M3 4V5H7V4H3Z" fill="#B9B9B9"/>
<path d="M82 4H81V5H82V4Z" fill="#B9B9B9"/>
<path d="M8 8H7V9H8V8Z" fill="#B9B9B9"/>
<path d="M79 10H78V11H79V10Z" fill="#B9B9B9"/>
<path d="M78 35V38H79V35H78Z" fill="#B9B9B9"/>
<path d="M78 39V43H79V39H78Z" fill="#B9B9B9"/>
<path d="M22 44H21V45H22V44Z" fill="#B9B9B9"/>
<path d="M67 44H66V45H67V44Z" fill="#B9B9B9"/>
<path d="M63 4H62V5H63V4Z" fill="#B5B5B5"/>
<path d="M63 8V9H66V8H63Z" fill="#B5B5B5"/>
<path d="M67 8V9H70H76V8H67Z" fill="#B5B5B5"/>
<path d="M78 14V16H79V14H78Z" fill="#B5B5B5"/>
<path d="M68 29H67V30H68V29Z" fill="#B5B5B5"/>
<path d="M5 24V35H6V28V24H5Z" fill="#C3C3C3"/>
<path d="M5 39V44H6V39H5Z" fill="#C3C3C3"/>
<path d="M5 15V18H6V15H5Z" fill="#BCBCBC"/>
<path d="M5 20V24H6V20H5Z" fill="#BCBCBC"/>
<path d="M17 44V45H19V44H17Z" fill="#BCBCBC"/>
<path d="M78 52V56H79V52H78Z" fill="#BCBCBC"/>
<path d="M79 57H78V58H79V57Z" fill="#BCBCBC"/>
<path d="M1 3H0V4H1V3Z" fill="#FCFCFC"/>
<path d="M68 44H67V45H68V44Z" fill="#FCFCFC"/>
<path d="M5 11V15H6V11H5Z" fill="#BBBBBB"/>
<path d="M16 40H15V41H16V40Z" fill="#BBBBBB"/>
<path d="M19 44V45H21V44H19Z" fill="#BBBBBB"/>
<path d="M78 48V49V52H79V48H78Z" fill="#BBBBBB"/>
<path d="M79 56H78V57H79V56Z" fill="#BBBBBB"/>
<path d="M15 52H14V53H15V52Z" fill="#CDCDCD"/>
<path d="M69 22H68V23H69V22Z" fill="#CBCBCB"/>
<path d="M16 33H15V34H16V33Z" fill="#CBCBCB"/>
<path d="M69 40H68V41H69V40Z" fill="#CBCBCB"/>
<path d="M3 4H2V5H3V4Z" fill="#BABABA"/>
<path d="M15 21H14V22H15V21Z" fill="#BABABA"/>
<path d="M78 45V46V48H79V45H78Z" fill="#BABABA"/>
<path d="M63 29V30H67V29H63Z" fill="#A8A8A8"/>
<path d="M6 10H5V11H6V10Z" fill="#C5C5C5"/>
<path d="M15 42H14V43H15V42Z" fill="#C5C5C5"/>
<path d="M5 56V58H6V56H5Z" fill="#C5C5C5"/>
<path d="M23 33V34H25V33H24H23Z" fill="#727272"/>
<path d="M61 33H60V34H61V33Z" fill="#727272"/>
<path d="M17 44H16V45H17V44Z" fill="#CCCCCC"/>
<path d="M2 0H1V1H2V0Z" fill="#ADADAD"/>
<path d="M84 2H83V3H84V2Z" fill="#ADADAD"/>
<path d="M5 18V20H6V18H5Z" fill="#BDBDBD"/>
<path d="M69 51H68V52H69V51Z" fill="#BDBDBD"/>
<path d="M69 19H68V20H69V19Z" fill="#F8F8F8"/>
<path d="M15 41H14V42H15V41Z" fill="#F8F8F8"/>
<path d="M17 50H16V51H17V50Z" fill="#F8F8F8"/>
<path d="M69 30H68V31H69V30Z" fill="#808080"/>
<path d="M68 33H67V34H68V33Z" fill="#B2B2B2"/>
<path d="M76 59H75V60H76V59Z" fill="#B2B2B2"/>
<path d="M9 59H8V60H9V59Z" fill="#8F8F8F"/>
<path d="M15 31H14V32H15V31Z" fill="#C2C2C2"/>
<path d="M78 59H77V60H78V59Z" fill="#C2C2C2"/>
<path d="M68 19H67V20H68V19Z" fill="#979797"/>
<path d="M17 33H16V34H17V33Z" fill="#979797"/>
<path d="M16 29H15V30H16V29Z" fill="#FAFAFA"/>
<path d="M61 29V30H62H63V29H61Z" fill="#9F9F9F"/>
<path d="M83 0H82V1H83V0Z" fill="#ABABAB"/>
<path d="M17 29H16V30H17V29Z" fill="#AFAFAF"/>
<path d="M17 19H16V20H17V19Z" fill="#757575"/>
<path d="M7 35H6V36H7V35Z" fill="#6C6C6C"/>
<path d="M68 22H67V23H68V22Z" fill="#717171"/>
<path d="M69 43H68V44H69V43Z" fill="#B8B8B8"/>
<path d="M75 58H74V59H75V58Z" fill="#ADADAD"/>
<path d="M10 58H9V59H10V58Z" fill="#808080"/>
<path d="M16 22H15V23H16V22Z" fill="#8F8F8F"/>
<path d="M69 32H68V33H69V32Z" fill="#9D9D9D"/>
</svg>
