<svg width="50" height="60" viewBox="0 0 50 60" fill="none" xmlns="http://www.w3.org/2000/svg">
<path fill-rule="evenodd" clip-rule="evenodd" d="M4 2L5 1H10L11 2V5L12 6V10L13 11V15L14 16V19L15 20V24L16 25V29L17 30V33L18 34V38L19 39V41L20 42L21 41V40L20 39V35L19 34V31L18 30V26L19 25H23L24 24H27L28 23H32L33 22H37L38 21H41L42 20H44V21L45 22V25L46 26V30L47 31V34L48 35V38L49 39V42H45V41H46L47 40V37L46 36V33L45 32V29L44 28V25L43 24V23L42 22H40L39 23H36L35 24H31L30 25H26L25 26H22L21 27H20V32L21 33V36L22 37V41L23 42V43L24 44V45H22L21 44H14V43H15L17 41V37L16 36V33L15 32V28L14 27V23L13 22V19L12 18V14L11 13V9L10 8V5L9 4V3L8 2L7 3H3L2 4H1V2H4ZM39 43L40 42H45V43H42L41 44H37L36 45H33L32 46H28L27 47V48H32L33 47H37L38 46H41L42 45H47V46H46L45 47H41L40 48H36L35 49H32L31 50H28L27 51V54L26 55V56L24 58H23L22 59H20L19 60H18L17 59H15V58H20L21 57H22L25 54V53L26 52V50L25 49V48L24 47V45H29L30 44H34L35 43H39ZM13 44H14V45H13V44ZM12 45H13V46H12V45ZM10 47L11 46H12V48L11 49V52L12 53V54L15 57V58H13L11 56V55L10 54V47Z" fill="#6C6C6C"/>
<path d="M11 1H10V2H11V1Z" fill="#6E6E6E"/>
<path d="M14 15H13V16H14V15Z" fill="#6E6E6E"/>
<path d="M17 29H16V30H17V29Z" fill="#6E6E6E"/>
<path d="M47 30H46V31H47V30Z" fill="#6E6E6E"/>
<path d="M23 41H22V42H23V41Z" fill="#6E6E6E"/>
<path d="M44 41H45V42H46V43H45V42H44V41Z" fill="#6E6E6E"/>
<path d="M13 43H14V44H13V45H12V46H11V45H12V44H13V43Z" fill="#6E6E6E"/>
<path d="M24 44H25V45H24V46H23V45H24V44Z" fill="#6E6E6E"/>
<path d="M15 57H16V58H15V59H14V58H15V57Z" fill="#6E6E6E"/>
<path d="M38 21H37V22H38V21Z" fill="#707070"/>
<path d="M24 24H23V25H24V24Z" fill="#707070"/>
<path d="M21 32H20V33H21V32Z" fill="#707070"/>
<path d="M48 34H47V35H48V34Z" fill="#707070"/>
<path d="M40 42H39V43H40V42Z" fill="#707070"/>
<path d="M15 44H14V45H15V44Z" fill="#707070"/>
<path d="M38 46H37V47H38V46Z" fill="#707070"/>
<path d="M10 0H9V1H10V0Z" fill="#737373"/>
<path d="M13 10H12V11H13V10Z" fill="#737373"/>
<path d="M49 38H48V39H49V38Z" fill="#737373"/>
<path d="M24 43H23V44H24V43Z" fill="#737373"/>
<path d="M35 43H34V44H35V43Z" fill="#737373"/>
<path d="M26 52H25V53H26V52Z" fill="#737373"/>
<path d="M11 9H10V10H11V9Z" fill="#8C8C8C"/>
<path d="M37 21H36V22H37V21Z" fill="#8C8C8C"/>
<path d="M14 23H13V24H14V23Z" fill="#8C8C8C"/>
<path d="M27 25H26V26H27V25Z" fill="#8C8C8C"/>
<path d="M21 31H20V32H21V31Z" fill="#8C8C8C"/>
<path d="M47 37H46V38H47V37Z" fill="#8C8C8C"/>
<path d="M23 40H22V41H23V40Z" fill="#8C8C8C"/>
<path d="M39 42H38V43H39V42Z" fill="#8C8C8C"/>
<path d="M47 44H46V45H47V44Z" fill="#8C8C8C"/>
<path d="M11 46H10V47H11V46Z" fill="#8C8C8C"/>
<path d="M37 46H36V47H37V46Z" fill="#8C8C8C"/>
<path d="M37 48H36V49H37V48Z" fill="#8C8C8C"/>
<path d="M10 50H9V51H10V50Z" fill="#8C8C8C"/>
<path d="M23 55H24V56H23V57H22V56H23V55Z" fill="#8C8C8C"/>
<path d="M17 59H16V60H17V59Z" fill="#8C8C8C"/>
<path d="M3 4H2V5H3V4Z" fill="#FAFAFA"/>
<path d="M13 22H12V23H13V22Z" fill="#FAFAFA"/>
<path d="M45 32H44V33H45V32Z" fill="#FAFAFA"/>
<path d="M16 36H15V37H16V36Z" fill="#FAFAFA"/>
<path d="M46 36H45V37H46V36Z" fill="#FAFAFA"/>
<path d="M46 43H45V44H46V43Z" fill="#FAFAFA"/>
<path d="M13 48H12V49H13V48Z" fill="#FAFAFA"/>
<path d="M11 56H10V57H11V56Z" fill="#FAFAFA"/>
<path d="M10 8H9V9H10V8Z" fill="#FCFCFC"/>
<path d="M43 24H42V25H43V24Z" fill="#FCFCFC"/>
<path d="M26 26H25V27H26V26Z" fill="#FCFCFC"/>
<path d="M44 28H43V29H44V28Z" fill="#FCFCFC"/>
<path d="M50 42H49V43H50V42Z" fill="#FCFCFC"/>
<path d="M36 45V46H37H38V45H37H36Z" fill="#FCFCFC"/>
<path d="M36 49H35V50H36V49Z" fill="#FCFCFC"/>
<path d="M23 59H22V60H23V59Z" fill="#FCFCFC"/>
<path d="M9 0H8V1H9V0Z" fill="#898989"/>
<path d="M4 3H3V4H4V3Z" fill="#898989"/>
<path d="M14 14H13V15H14V14Z" fill="#898989"/>
<path d="M17 28H16V29H17V28Z" fill="#898989"/>
<path d="M47 29H46V30H47V29Z" fill="#898989"/>
<path d="M17 37H16V38H17V37Z" fill="#898989"/>
<path d="M44 41H43V42H44V41Z" fill="#898989"/>
<path d="M47 42H46V43H47V42Z" fill="#898989"/>
<path d="M10 49H9V50H10V49Z" fill="#898989"/>
<path d="M12 52H11V53H12V52Z" fill="#898989"/>
<path d="M5 1H4V2H5V1Z" fill="#767676"/>
<path d="M16 24H15V25H16V24Z" fill="#767676"/>
<path d="M19 38H18V39H19V38Z" fill="#767676"/>
<path d="M16 42H15V43H16V42Z" fill="#767676"/>
<path d="M30 44H29V45H30V44Z" fill="#767676"/>
<path d="M33 47H32V48H33V47Z" fill="#767676"/>
<path d="M12 16H11V17H12V16Z" fill="#D4D4D4"/>
<path d="M16 21H15V22H16V21Z" fill="#D4D4D4"/>
<path d="M18 28H17V29H18V28Z" fill="#D4D4D4"/>
<path d="M15 30H14V31H15V30Z" fill="#D4D4D4"/>
<path d="M19 35H18V36H19V35Z" fill="#D4D4D4"/>
<path d="M20 37H19V38H20V37Z" fill="#D4D4D4"/>
<path d="M47 39H46V40H47V39Z" fill="#D4D4D4"/>
<path d="M30 47H29V48H30V47Z" fill="#D4D4D4"/>
<path d="M30 50H29V51H30V50Z" fill="#D4D4D4"/>
<path d="M27 55H26V56H27V55Z" fill="#D4D4D4"/>
<path d="M2 4H1V5H2V4Z" fill="#EBEBEB"/>
<path d="M11 12H10V13H11V12Z" fill="#EBEBEB"/>
<path d="M14 26H13V27H14V26Z" fill="#EBEBEB"/>
<path d="M15 45H14V46H15V45Z" fill="#EBEBEB"/>
<path d="M34 46H33V47H34V46Z" fill="#EBEBEB"/>
<path d="M48 46H47V47H48V46Z" fill="#EBEBEB"/>
<path d="M40 48H39V49H40V48Z" fill="#EBEBEB"/>
<path d="M15 59H14V60H15V59Z" fill="#EBEBEB"/>
<path d="M10 7H9V8H10V7Z" fill="#E1E1E1"/>
<path d="M39 20H38V21H39V20Z" fill="#E1E1E1"/>
<path d="M25 23H24V24H25V23Z" fill="#E1E1E1"/>
<path d="M43 23H42V24H43V23Z" fill="#E1E1E1"/>
<path d="M25 26H24V27H25V26Z" fill="#E1E1E1"/>
<path d="M50 39H49V40H50V39Z" fill="#E1E1E1"/>
<path d="M41 41H40V42H41V41Z" fill="#E1E1E1"/>
<path d="M36 45H35V46H36V45Z" fill="#E1E1E1"/>
<path d="M39 45H38V46H39V45Z" fill="#E1E1E1"/>
<path d="M35 49H34V50H35V49Z" fill="#E1E1E1"/>
<path d="M8 0H7V1H8V0Z" fill="#A9A9A9"/>
<path d="M14 13H13V14H14V13Z" fill="#A9A9A9"/>
<path d="M14 24H13V25H14V24Z" fill="#A9A9A9"/>
<path d="M46 24H45V25H46V24Z" fill="#A9A9A9"/>
<path d="M17 27H16V28H17V27Z" fill="#A9A9A9"/>
<path d="M17 38H16V39H17V38Z" fill="#A9A9A9"/>
<path d="M38 42H37V43H38V42Z" fill="#A9A9A9"/>
<path d="M48 42H47V43H48V42Z" fill="#A9A9A9"/>
<path d="M10 48H9V49H10V48Z" fill="#A9A9A9"/>
<path d="M11 55H10V56H11V55Z" fill="#A9A9A9"/>
<path d="M15 56H14V57H15V56Z" fill="#A9A9A9"/>
<path d="M3 1H2V2H3V1Z" fill="#B6B6B6"/>
<path d="M12 15H11V16H12V15Z" fill="#B6B6B6"/>
<path d="M15 29H14V30H15V29Z" fill="#B6B6B6"/>
<path d="M45 30H44V31H45V30Z" fill="#B6B6B6"/>
<path d="M47 40H46V41H47V40Z" fill="#B6B6B6"/>
<path d="M50 41H49V42H50V41Z" fill="#B6B6B6"/>
<path d="M30 46H29V47H30V46Z" fill="#B6B6B6"/>
<path d="M43 47H42V48H43V47Z" fill="#B6B6B6"/>
<path d="M29 50H28V51H29V50Z" fill="#B6B6B6"/>
<path d="M19 57H18V58H19V57Z" fill="#B6B6B6"/>
<path d="M1 3H0V4H1V3Z" fill="#ACACAC"/>
<path d="M5 3H4V4H5V3Z" fill="#ACACAC"/>
<path d="M11 10H10V11H11V10Z" fill="#ACACAC"/>
<path d="M36 21H35V22H36V21Z" fill="#ACACAC"/>
<path d="M22 24H21V25H22V24Z" fill="#ACACAC"/>
<path d="M28 25H27V26H28V25Z" fill="#ACACAC"/>
<path d="M47 28H46V29H47V28Z" fill="#ACACAC"/>
<path d="M21 30H20V31H21V30Z" fill="#ACACAC"/>
<path d="M23 39H22V40H23V39Z" fill="#ACACAC"/>
<path d="M36 46H35V47H36V46Z" fill="#ACACAC"/>
<path d="M38 48H37V49H38V48Z" fill="#ACACAC"/>
<path d="M14 58H13V59H14V58Z" fill="#ACACAC"/>
<path d="M13 8H12V9H13V8Z" fill="#B3B3B3"/>
<path d="M45 20H44V21H45V20Z" fill="#B3B3B3"/>
<path d="M16 22H15V23H16V22Z" fill="#B3B3B3"/>
<path d="M42 22H41V23H42V22Z" fill="#B3B3B3"/>
<path d="M18 27H17V28H18V27Z" fill="#B3B3B3"/>
<path d="M48 32H47V33H48V32Z" fill="#B3B3B3"/>
<path d="M46 34H45V35H46V34Z" fill="#B3B3B3"/>
<path d="M18 36V37H19H20V36H19H18Z" fill="#B3B3B3"/>
<path d="M28 44H27V45H28V44Z" fill="#B3B3B3"/>
<path d="M31 47H30V48H31V47Z" fill="#B3B3B3"/>
<path d="M6 3H5V4H6V3Z" fill="#CCCCCC"/>
<path d="M11 11H10V12H11V11Z" fill="#CCCCCC"/>
<path d="M35 21H34V22H35V21Z" fill="#CCCCCC"/>
<path d="M46 23H45V24H46V23Z" fill="#CCCCCC"/>
<path d="M18 25H17V26H18V25Z" fill="#CCCCCC"/>
<path d="M29 25H28V26H29V25Z" fill="#CCCCCC"/>
<path d="M23 38H22V39H23V38Z" fill="#CCCCCC"/>
<path d="M49 42H48V43H49V42Z" fill="#CCCCCC"/>
<path d="M32 43H31V44H32V43Z" fill="#CCCCCC"/>
<path d="M35 46H34V47H35V46Z" fill="#CCCCCC"/>
<path d="M39 48H38V49H39V48Z" fill="#CCCCCC"/>
<path d="M22 59H21V60H22V59Z" fill="#CCCCCC"/>
<path d="M1 4H0V5H1V4Z" fill="#FEFEFE"/>
<path d="M40 23H39V24H40V23Z" fill="#FEFEFE"/>
<path d="M14 27H13V28H14V27Z" fill="#FEFEFE"/>
<path d="M22 45H21V46H22V45Z" fill="#FEFEFE"/>
<path d="M25 49H24V50H25V49Z" fill="#FEFEFE"/>
<path d="M7 0H6V1H7V0Z" fill="#C9C9C9"/>
<path d="M14 12H13V13H14V12Z" fill="#C9C9C9"/>
<path d="M14 25H13V26H14V25Z" fill="#C9C9C9"/>
<path d="M17 26H16V27H17V26Z" fill="#C9C9C9"/>
<path d="M17 39H16V40H17V39Z" fill="#C9C9C9"/>
<path d="M20 40H19V41H20V40Z" fill="#C9C9C9"/>
<path d="M17 41H16V42H17V41Z" fill="#C9C9C9"/>
<path d="M37 42H36V43H37V42Z" fill="#C9C9C9"/>
<path d="M26 44H25V45H26V44Z" fill="#C9C9C9"/>
<path d="M23 45H22V46H23V45Z" fill="#C9C9C9"/>
<path d="M1 2H0V3H1V2Z" fill="#B0B0B0"/>
<path d="M47 38H46V39H47V38Z" fill="#B0B0B0"/>
<path d="M15 42H14V43H15V42Z" fill="#B0B0B0"/>
<path d="M33 43H32V44H33V43Z" fill="#B0B0B0"/>
<path d="M39 44H38V45H39V44Z" fill="#B0B0B0"/>
<path d="M20 57H19V58H20V57Z" fill="#B0B0B0"/>
<path d="M10 5H9V6H10V5Z" fill="#A3A3A3"/>
<path d="M41 20H40V21H41V20Z" fill="#A3A3A3"/>
<path d="M27 23H26V24H27V23Z" fill="#A3A3A3"/>
<path d="M19 31H18V32H19V31Z" fill="#A3A3A3"/>
<path d="M21 41H20V42H21V41Z" fill="#A3A3A3"/>
<path d="M16 44H15V45H16V44Z" fill="#A3A3A3"/>
<path d="M34 45H33V46H34V45Z" fill="#A3A3A3"/>
<path d="M41 45H40V46H41V45Z" fill="#A3A3A3"/>
<path d="M47 46H46V47H47V46Z" fill="#A3A3A3"/>
<path d="M12 50H11V51H12V50Z" fill="#A3A3A3"/>
<path d="M13 54H12V55H13V54Z" fill="#A3A3A3"/>
<path d="M33 22H32V23H33V22Z" fill="#7A7A7A"/>
<path d="M19 25H18V26H19V25Z" fill="#7A7A7A"/>
<path d="M22 36H21V37H22V36Z" fill="#7A7A7A"/>
<path d="M13 45H14V46H13V47H12V46H13V45Z" fill="#7A7A7A"/>
<path d="M15 16H14V17H15V16Z" fill="#DEDEDE"/>
<path d="M13 21H12V22H13V21Z" fill="#DEDEDE"/>
<path d="M44 27H43V28H44V27Z" fill="#DEDEDE"/>
<path d="M18 30H17V31H18V30Z" fill="#DEDEDE"/>
<path d="M22 33H21V34H22V33Z" fill="#DEDEDE"/>
<path d="M16 35H15V36H16V35Z" fill="#DEDEDE"/>
<path d="M46 40H45V41H46V40Z" fill="#DEDEDE"/>
<path d="M45 43H44V44H45V43Z" fill="#DEDEDE"/>
<path d="M17 44H16V45H17V44Z" fill="#DEDEDE"/>
<path d="M28 53H27V54H28V53Z" fill="#DEDEDE"/>
<path d="M13 19H12V20H13V19Z" fill="#A0A0A0"/>
<path d="M23 26H22V27H23V26Z" fill="#A0A0A0"/>
<path d="M18 32H17V33H18V32Z" fill="#A0A0A0"/>
<path d="M16 33H15V34H16V33Z" fill="#A0A0A0"/>
<path d="M21 40H20V41H21V40Z" fill="#A0A0A0"/>
<path d="M12 49H11V50H12V49Z" fill="#A0A0A0"/>
<path d="M33 49H32V50H33V49Z" fill="#A0A0A0"/>
<path d="M12 51H11V52H12V51Z" fill="#A0A0A0"/>
<path d="M21 28H20V29H21V28Z" fill="#F1F1F1"/>
<path d="M19 34H18V35H19V34Z" fill="#F1F1F1"/>
<path d="M20 38H19V39H20V38Z" fill="#F1F1F1"/>
<path d="M41 44H40V45H41V44Z" fill="#F1F1F1"/>
<path d="M29 47H28V48H29V47Z" fill="#F1F1F1"/>
<path d="M35 24H34V25H35V24Z" fill="#F7F7F7"/>
<path d="M43 44H42V45H43V44Z" fill="#F7F7F7"/>
<path d="M32 46H31V47H32V46Z" fill="#F7F7F7"/>
<path d="M10 54H9V55H10V54Z" fill="#F7F7F7"/>
<path d="M13 58H12V59H13V58Z" fill="#F7F7F7"/>
<path d="M12 3H11V4H12V3Z" fill="#BCBCBC"/>
<path d="M15 17H14V18H15V17Z" fill="#BCBCBC"/>
<path d="M22 34H21V35H22V34Z" fill="#BCBCBC"/>
<path d="M50 40H49V41H50V40Z" fill="#BCBCBC"/>
<path d="M43 43H44V44H45V45H44V44H43V43Z" fill="#BCBCBC"/>
<path d="M28 52H27V53H28V52Z" fill="#BCBCBC"/>
<path d="M18 57H17V58H18V57Z" fill="#BCBCBC"/>
<path d="M9 3H8V4H9V3Z" fill="#F4F4F4"/>
<path d="M12 17H11V18H12V17Z" fill="#F4F4F4"/>
<path d="M21 27H20V28H21V27Z" fill="#F4F4F4"/>
<path d="M15 31H14V32H15V31Z" fill="#F4F4F4"/>
<path d="M45 47H44V48H45V47Z" fill="#F4F4F4"/>
<path d="M31 50H30V51H31V50Z" fill="#F4F4F4"/>
<path d="M12 57H11V58H12V57Z" fill="#F4F4F4"/>
<path d="M23 24H22V25H23V24Z" fill="#8F8F8F"/>
<path d="M46 33H45V34H46V33Z" fill="#8F8F8F"/>
<path d="M48 33H47V34H48V33Z" fill="#8F8F8F"/>
<path d="M20 35H19V36H20V35Z" fill="#8F8F8F"/>
<path d="M34 43H33V44H34V43Z" fill="#8F8F8F"/>
<path d="M38 44H37V45H38V44Z" fill="#8F8F8F"/>
<path d="M10 51H9V52H10V51Z" fill="#8F8F8F"/>
<path d="M21 59H20V60H21V59Z" fill="#8F8F8F"/>
<path d="M12 14H11V15H12V14Z" fill="#959595"/>
<path d="M44 25H43V26H44V25Z" fill="#959595"/>
<path d="M15 28H14V29H15V28Z" fill="#959595"/>
<path d="M19 37H18V38H19V37Z" fill="#959595"/>
<path d="M49 37H48V38H49V37Z" fill="#959595"/>
<path d="M29 44H28V45H29V44Z" fill="#959595"/>
<path d="M29 46H28V47H29V46Z" fill="#959595"/>
<path d="M32 47H31V48H32V47Z" fill="#959595"/>
<path d="M7 3H6V4H7V3Z" fill="#EEEEEE"/>
<path d="M30 25H29V26H30V25Z" fill="#EEEEEE"/>
<path d="M18 29H17V30H18V29Z" fill="#EEEEEE"/>
<path d="M20 44H19V45H20V44Z" fill="#EEEEEE"/>
<path d="M12 2H11V3H12V2Z" fill="#DBDBDB"/>
<path d="M34 24H33V25H34V24Z" fill="#DBDBDB"/>
<path d="M45 31H44V32H45V31Z" fill="#DBDBDB"/>
<path d="M49 35H48V36H49V35Z" fill="#DBDBDB"/>
<path d="M44 44H43V45H44V44Z" fill="#DBDBDB"/>
<path d="M25 48H24V49H25V48Z" fill="#DBDBDB"/>
<path d="M14 11H13V12H14V11Z" fill="#E8E8E8"/>
<path d="M17 25H16V26H17V25Z" fill="#E8E8E8"/>
<path d="M20 39H19V40H20V39Z" fill="#E8E8E8"/>
<path d="M17 40H16V41H17V40Z" fill="#E8E8E8"/>
<path d="M36 42H35V43H36V42Z" fill="#E8E8E8"/>
<path d="M14 46H13V47H14V46Z" fill="#E8E8E8"/>
<path d="M28 47H27V48H28V47Z" fill="#E8E8E8"/>
<path d="M10 6H9V7H10V6Z" fill="#C3C3C3"/>
<path d="M40 20H39V21H40V20Z" fill="#C3C3C3"/>
<path d="M26 23H25V24H26V23Z" fill="#C3C3C3"/>
<path d="M19 32H18V33H19V32Z" fill="#C3C3C3"/>
<path d="M42 41H41V42H42V41Z" fill="#C3C3C3"/>
<path d="M35 45H34V46H35V45Z" fill="#C3C3C3"/>
<path d="M40 45H39V46H40V45Z" fill="#C3C3C3"/>
<path d="M13 7H12V8H13V7Z" fill="#D1D1D1"/>
<path d="M47 27H46V28H47V27Z" fill="#D1D1D1"/>
<path d="M21 44H20V45H21V44Z" fill="#D1D1D1"/>
<path d="M27 44H26V45H27V44Z" fill="#D1D1D1"/>
<path d="M40 44H39V45H40V44Z" fill="#D1D1D1"/>
<path d="M2 1H1V2H2V1Z" fill="#D7D7D7"/>
<path d="M30 22H29V23H30V22Z" fill="#D7D7D7"/>
<path d="M48 31H47V32H48V31Z" fill="#D7D7D7"/>
<path d="M46 35H45V36H46V35Z" fill="#D7D7D7"/>
<path d="M24 42H23V43H24V42Z" fill="#D7D7D7"/>
<path d="M31 46H30V47H31V46Z" fill="#D7D7D7"/>
<path d="M44 47H43V48H44V47Z" fill="#D7D7D7"/>
<path d="M13 9H12V10H13V9Z" fill="#939393"/>
<path d="M41 22H40V23H41V22Z" fill="#939393"/>
<path d="M16 23H15V24H16V23Z" fill="#939393"/>
<path d="M45 29H44V30H45V29Z" fill="#939393"/>
<path d="M20 41H19V42H20V41Z" fill="#939393"/>
<path d="M4 1H3V2H4V1Z" fill="#989898"/>
<path d="M32 22H31V23H32V22Z" fill="#989898"/>
<path d="M32 24H31V25H32V24Z" fill="#989898"/>
<path d="M18 26H17V27H18V26Z" fill="#989898"/>
<path d="M42 47H41V48H42V47Z" fill="#989898"/>
<path d="M10 52H9V53H10V52Z" fill="#989898"/>
<path d="M17 57H16V58H17V57Z" fill="#989898"/>
<path d="M37 23H36V24H37V23Z" fill="#A6A6A6"/>
<path d="M43 41H42V42H43V41Z" fill="#A6A6A6"/>
<path d="M28 51H27V52H28V51Z" fill="#A6A6A6"/>
<path d="M16 59H15V60H16V59Z" fill="#A6A6A6"/>
<path d="M31 22H30V23H31V22Z" fill="#B8B8B8"/>
<path d="M33 24H32V25H33V24Z" fill="#B8B8B8"/>
<path d="M44 26H43V27H44V26Z" fill="#B8B8B8"/>
<path d="M49 36H48V37H49V36Z" fill="#B8B8B8"/>
<path d="M24 58H23V59H24V58Z" fill="#B8B8B8"/>
<path d="M42 20H41V21H42V20Z" fill="#828282"/>
<path d="M28 23H27V24H28V23Z" fill="#828282"/>
<path d="M12 4H11V5H12V4Z" fill="#9D9D9D"/>
<path d="M15 18H14V19H15V18Z" fill="#9D9D9D"/>
<path d="M22 35H21V36H22V35Z" fill="#9D9D9D"/>
<path d="M43 43H42V44H43V43Z" fill="#9D9D9D"/>
<path d="M46 44H45V45H46V44Z" fill="#9D9D9D"/>
<path d="M48 45H47V46H48V45Z" fill="#9D9D9D"/>
<path d="M12 5H11V6H12V5Z" fill="#7E7E7E"/>
<path d="M15 19H14V20H15V19Z" fill="#7E7E7E"/>
<path d="M45 21H44V22H45V21Z" fill="#7E7E7E"/>
<path d="M18 33H17V34H18V33Z" fill="#7E7E7E"/>
<path d="M26 50H25V51H26V50Z" fill="#7E7E7E"/>
<path d="M44 19H43V20H44V19Z" fill="#E5E5E5"/>
<path d="M39 23H38V24H39V23Z" fill="#E5E5E5"/>
<path d="M19 33H18V34H19V33Z" fill="#E5E5E5"/>
<path d="M13 20H12V21H13V20Z" fill="#BFBFBF"/>
<path d="M24 26H23V27H24V26Z" fill="#BFBFBF"/>
<path d="M18 31H17V32H18V31Z" fill="#BFBFBF"/>
<path d="M16 34H15V35H16V34Z" fill="#BFBFBF"/>
<path d="M34 49H33V50H34V49Z" fill="#BFBFBF"/>
<path d="M25 53H24V54H25V53Z" fill="#BFBFBF"/>
<path d="M46 25H45V26H46V25Z" fill="#858585"/>
<path d="M42 45H41V46H42V45Z" fill="#858585"/>
<path d="M26 51H25V52H26V51Z" fill="#858585"/>
<path d="M21 57H20V58H21V57Z" fill="#858585"/>
<path d="M25 54H24V55H25V54Z" fill="#808080"/>
<path d="M21 24H20V25H21V24Z" fill="#CECECE"/>
<path d="M21 29H20V30H21V29Z" fill="#CECECE"/>
<path d="M38 23H37V24H38V23Z" fill="#C6C6C6"/>
<path d="M24 46H23V47H24V46Z" fill="#C6C6C6"/>
<path d="M13 47H12V48H13V47Z" fill="#C6C6C6"/>
<path d="M10 53H9V54H10V53Z" fill="#C6C6C6"/>
<path d="M34 28L33 29H32H31H30H29V30V31H30H31L32 30H33H34H35H36L37 29V28H36H35H34Z" fill="#6C6C6C"/>
<path d="M3 3H2V4H3V3Z" fill="#6E6E6E"/>
<path d="M14 22H13V23H14V22Z" fill="#6E6E6E"/>
<path d="M17 36H16V37H17V36Z" fill="#6E6E6E"/>
<path d="M47 36H46V37H47V36Z" fill="#6E6E6E"/>
<path d="M20 59H19V60H20V59Z" fill="#6E6E6E"/>
<path d="M11 8H10V9H11V8Z" fill="#707070"/>
<path d="M26 25H25V26H26V25Z" fill="#707070"/>
<path d="M45 28H44V29H45V28Z" fill="#707070"/>
<path d="M46 32H45V33H46V32Z" fill="#707070"/>
<path d="M36 48H35V49H36V48Z" fill="#707070"/>
<path d="M40 22H39V23H40V22Z" fill="#737373"/>
<path d="M44 24H43V25H44V24Z" fill="#737373"/>
<path d="M34 28H33V29H34V28Z" fill="#737373"/>
<path d="M20 34H19V35H20V34Z" fill="#737373"/>
<path d="M37 44H36V45H37V44Z" fill="#737373"/>
<path d="M12 48H11V49H12V48Z" fill="#737373"/>
<path d="M28 48H27V49H28V48Z" fill="#737373"/>
<path d="M11 54H10V55H11V54Z" fill="#737373"/>
<path d="M18 59H17V60H18V59Z" fill="#737373"/>
<path d="M33 30H32V31H33V30Z" fill="#8C8C8C"/>
<path d="M22 44H21V45H22V44Z" fill="#8C8C8C"/>
<path d="M27 54H26V55H27V54Z" fill="#8C8C8C"/>
<path d="M12 1H11V2H12V1Z" fill="#FAFAFA"/>
<path d="M15 15H14V16H15V15Z" fill="#FAFAFA"/>
<path d="M22 32H21V33H22V32Z" fill="#FAFAFA"/>
<path d="M49 34H48V35H49V34Z" fill="#FAFAFA"/>
<path d="M45 40H44V41H45V40Z" fill="#FAFAFA"/>
<path d="M16 41H15V42H16V41Z" fill="#FAFAFA"/>
<path d="M24 41H23V42H24V41Z" fill="#FAFAFA"/>
<path d="M45 19H44V20H45V19Z" fill="#FCFCFC"/>
<path d="M38 20H37V21H38V20Z" fill="#FCFCFC"/>
<path d="M24 23H23V24H24V23Z" fill="#FCFCFC"/>
<path d="M32 31H31V32H32V31Z" fill="#FCFCFC"/>
<path d="M50 38H49V39H50V38Z" fill="#FCFCFC"/>
<path d="M40 41H39V42H40V41Z" fill="#FCFCFC"/>
<path d="M12 13H11V14H12V13Z" fill="#767676"/>
<path d="M15 27H14V28H15V27Z" fill="#767676"/>
<path d="M20 27H19V28H20V27Z" fill="#767676"/>
<path d="M29 30H28V31H29V30Z" fill="#767676"/>
<path d="M28 46H27V47H28V46Z" fill="#767676"/>
<path d="M41 47H40V48H41V47Z" fill="#767676"/>
<path d="M26 49H25V50H26V49Z" fill="#767676"/>
<path d="M31 28H30V29H31V28Z" fill="#D4D4D4"/>
<path d="M38 29H37V30H38V29Z" fill="#D4D4D4"/>
<path d="M6 0H5V1H6V0Z" fill="#EBEBEB"/>
<path d="M34 21H33V22H34V21Z" fill="#EBEBEB"/>
<path d="M36 30H35V31H36V30Z" fill="#EBEBEB"/>
<path d="M31 43H30V44H31V43Z" fill="#EBEBEB"/>
<path d="M31 31H30V32H31V31Z" fill="#E1E1E1"/>
<path d="M13 53H12V54H13V53Z" fill="#E1E1E1"/>
<path d="M26 56H25V57H26V56Z" fill="#B6B6B6"/>
<path d="M34 30H33V31H34V30Z" fill="#ACACAC"/>
<path d="M32 28H31V29H32V28Z" fill="#B3B3B3"/>
<path d="M14 55H13V56H14V55Z" fill="#B3B3B3"/>
<path d="M35 30H34V31H35V30Z" fill="#CCCCCC"/>
<path d="M13 43H12V44H13V43Z" fill="#CCCCCC"/>
<path d="M1 1H0V2H1V1Z" fill="#FEFEFE"/>
<path d="M14 10H13V11H14V10Z" fill="#FEFEFE"/>
<path d="M17 24H16V25H17V24Z" fill="#FEFEFE"/>
<path d="M34 27H33V28H34V27Z" fill="#FEFEFE"/>
<path d="M28 30H27V31H28V30Z" fill="#FEFEFE"/>
<path d="M35 42H34V43H35V42Z" fill="#FEFEFE"/>
<path d="M11 0H10V1H11V0Z" fill="#B0B0B0"/>
<path d="M25 57H24V58H25V57Z" fill="#B0B0B0"/>
<path d="M43 22H42V23H43V22Z" fill="#A3A3A3"/>
<path d="M8 2H7V3H8V2Z" fill="#7A7A7A"/>
<path d="M31 24H30V25H31V24Z" fill="#7A7A7A"/>
<path d="M28 50H27V51H28V50Z" fill="#7A7A7A"/>
<path d="M23 58H22V59H23V58Z" fill="#7A7A7A"/>
<path d="M29 29H28V30H29V29Z" fill="#A0A0A0"/>
<path d="M25 47H24V48H25V47Z" fill="#A0A0A0"/>
<path d="M13 6H12V7H13V6Z" fill="#F1F1F1"/>
<path d="M16 20H15V21H16V20Z" fill="#F1F1F1"/>
<path d="M38 27H37V28H38V27Z" fill="#F1F1F1"/>
<path d="M30 28H29V29H30V28Z" fill="#F1F1F1"/>
<path d="M16 56H15V57H16V56Z" fill="#F1F1F1"/>
<path d="M29 22H28V23H29V22Z" fill="#F7F7F7"/>
<path d="M48 30H47V31H48V30Z" fill="#F7F7F7"/>
<path d="M25 52H24V53H25V52Z" fill="#F7F7F7"/>
<path d="M23 54H24V55H23V56H22V55H23V54Z" fill="#F7F7F7"/>
<path d="M43 19H42V20H43V19Z" fill="#F4F4F4"/>
<path d="M47 26H46V27H47V26Z" fill="#F4F4F4"/>
<path d="M9 2H8V3H9V2Z" fill="#8F8F8F"/>
<path d="M12 56H11V57H12V56Z" fill="#8F8F8F"/>
<path d="M46 22H45V23H46V22Z" fill="#EEEEEE"/>
<path d="M20 24H19V25H20V24Z" fill="#EEEEEE"/>
<path d="M23 37H22V38H23V37Z" fill="#EEEEEE"/>
<path d="M14 42H13V43H14V42Z" fill="#EEEEEE"/>
<path d="M11 45H10V46H11V45Z" fill="#DBDBDB"/>
<path d="M22 56H21V57H22V56Z" fill="#DBDBDB"/>
<path d="M35 27H34V28H35V27Z" fill="#E8E8E8"/>
<path d="M30 31H29V32H30V31Z" fill="#C3C3C3"/>
<path d="M25 43H24V44H25V43Z" fill="#D1D1D1"/>
<path d="M12 44H11V45H12V44Z" fill="#D1D1D1"/>
<path d="M48 44H47V45H48V44Z" fill="#D1D1D1"/>
<path d="M33 28H32V29H33V28Z" fill="#939393"/>
<path d="M38 28H37V29H38V28Z" fill="#A6A6A6"/>
<path d="M37 27H36V28H37V27Z" fill="#B8B8B8"/>
<path d="M10 4H9V5H10V4Z" fill="#828282"/>
<path d="M13 18H12V19H13V18Z" fill="#828282"/>
<path d="M19 30H18V31H19V30Z" fill="#828282"/>
<path d="M33 45H32V46H33V45Z" fill="#828282"/>
<path d="M46 46H45V47H46V46Z" fill="#828282"/>
<path d="M32 49H31V50H32V49Z" fill="#828282"/>
<path d="M42 43H41V44H42V43Z" fill="#7E7E7E"/>
<path d="M29 31H28V32H29V31Z" fill="#E5E5E5"/>
<path d="M10 47H9V48H10V47Z" fill="#E5E5E5"/>
<path d="M36 23H35V24H36V23Z" fill="#858585"/>
<path d="M13 57H12V58H13V57Z" fill="#858585"/>
<path d="M22 26H21V27H22V26Z" fill="#808080"/>
<path d="M16 32H15V33H16V32Z" fill="#808080"/>
<path d="M21 39H20V40H21V39Z" fill="#808080"/>
<path d="M36 27H35V28H36V27Z" fill="#C6C6C6"/>
<path d="M32 30H31V31H32V30Z" fill="#707070"/>
<path d="M37 29H36V30H37V29Z" fill="#7A7A7A"/>
</svg>
